<svg xmlns="http://www.w3.org/2000/svg" viewBox="0 0 194.82 195.1"><g id="Capa_2" data-name="Capa 2"><g id="Capa_2-2" data-name="Capa 2"><polygon points="14.94 107.46 10.24 107.91 9.82 103.49 14.52 103.05 14.01 97.56 0 98.88 0.52 104.37 5.22 103.92 5.64 108.34 0.93 108.79 1.45 114.27 15.46 112.95 14.94 107.46"/><polygon points="15.2 83.94 10.84 83.58 10.2 91.27 9.29 91.19 9.9 83.8 6.44 83.51 5.83 90.91 4.89 90.83 5.53 83.14 1.18 82.78 0.09 95.96 14.1 97.12 15.2 83.94"/><path d="M16.61,78l-1.34-.87,1.47-5.2,1.59,0,1.54-5.47L5,67.4,2.89,74.81l12.18,8.62Zm-4.89-3.14-3-1.89L9,72.05,12.52,72Z"/><polygon points="23.93 58.57 13.33 48.05 10.91 53.18 17.74 59.59 17.5 60.09 8.2 58.91 5.78 64.05 20.64 65.54 23.93 58.57"/><polygon points="28.41 51.18 31.61 46.71 28.13 44.22 23.49 33.86 20.15 38.54 22.44 43.28 22.21 43.6 16.99 42.95 13.64 47.64 24.89 48.67 28.41 51.18"/><polygon points="46.94 31.36 41.69 17.38 37.34 21.04 40.88 29.71 40.46 30.06 32.5 25.12 28.16 28.78 41.04 36.32 46.94 31.36"/><polygon points="61.09 22.43 58.88 18.66 52.22 22.57 51.75 21.77 58.15 18.02 56.39 15.03 49.99 18.79 49.52 17.98 56.18 14.06 53.96 10.29 42.55 17 49.68 29.13 61.09 22.43"/><path d="M68.45,20.07a6.41,6.41,0,0,0,4.06-3.71l.09,0,.64,1.48,2.57-.95L73,9.34,65.79,12l.87,2.35,2.28-.84c0,1.38-1.48,1.85-1.71,1.94a2.6,2.6,0,0,1-3.49-1.66,2.62,2.62,0,0,1,1.74-3.59,2.14,2.14,0,0,1,2.17.2l5.12-1.9C71,5,67,4.6,63.71,5.82,59,7.58,57,11.43,58.6,15.72S64.37,21.59,68.45,20.07Z"/><path d="M81.82,14.24l5.34-.84.68,1.44L93.45,14,86.35.83,78.74,2,76,16.69l5.61-.88Zm1.07-7.66.91-.14L85.33,9.6l-2.93.46Z"/><path d="M99.39,8l.5,0,3.27,6.53,1.2.05c-2.34,4.77-4.2,11.22-5.2,19.61-.73,0-1.46-.06-2.2-.06A62.69,62.69,0,0,0,57.83,47.78a8.7,8.7,0,0,0-5.09-2.58c-3.36-.53-6.62,1.09-9,4.43-2.86,4.08-4.56,11-3.74,20.46a63,63,0,0,0,39.07,87.48,12.68,12.68,0,0,0,3.7,4.8c3.89,3.12,9.75,4.46,16.41,4.46,10.19,0,22.24-3.15,31.93-7.92,12.1-6,19-13.6,18.81-21a13.23,13.23,0,0,0-1.08-5.12,62.91,62.91,0,0,0-14.2-86.16c-.54-9.37-1.6-19-3.68-26.69l1.46-3.16,4,1.87-2,4.28,5,2.32,5.93-12.75-5-2.32-2,4.28-4-1.87,2-4.28-5-2.33-3,6.57a19,19,0,0,0-4-5.73C121,3.7,116.8,3,112.87,4.88a13.44,13.44,0,0,0-3.21,2.22L110,.73,104.61.48l-.3,6.36-.49,0L100.69.3,94.4,0l-.66,14.06,5.35.25Zm1,68c-3.14-.2-9,0-12.61,3.59-2.7,2.67-3.66,6.6-2.82,11.67,1.24,7.58,6.5,13.7,15.19,17.75,1.05,2.82,1.18,5.08.36,6.71-1,2.08-3.48,2.94-5.47,3.46-2.47.63-5.58-.65-8.78-3.6C76.62,106.72,68.39,86,72,70.22a27,27,0,0,1,1.18-3.94c1.61-4.21,4.11-6.85,7.43-7.83,7.06-2.08,16.06,3.48,18.42,5.06C99.32,67.45,99.78,71.61,100.37,75.93ZM83.09,117c-2.62,4.29-5.3,6.15-8,5.52-8.25-2-16.46-25.06-17-38-.26-5.75.46-12.86,5.35-14.07a9.3,9.3,0,0,1,5.08.41C65.55,87,73.5,107.42,83.09,117ZM97,37.35c.63,0,1.24,0,1.86,0a149.77,149.77,0,0,0-.12,22.08c-4.13-2.42-12.08-6.19-19-4.15-4.34,1.28-7.56,4.57-9.55,9.79-.32.82-.6,1.69-.85,2.58a13.38,13.38,0,0,0-5.06-.65c-.59-2.2-1.06-4.37-1.51-6.49-.78-3.71-1.54-7.32-3-10.12A59.5,59.5,0,0,1,97,37.35ZM78.09,153.84A59.74,59.74,0,0,1,40.91,76.37c1.74,9.47,5.76,21,13.06,34.33-1.73,4.49-1.17,10.63,1.56,16.65,4.14,9.15,12.47,16.28,23,19.75A19.62,19.62,0,0,0,78.09,153.84Zm78.66-56.71A59.46,59.46,0,0,1,147,129.82a12.64,12.64,0,0,0-3.52-2.81c9.08-12.11,12.89-26.82,9.23-36.21-2.14-5.5-6.59-9-12.87-10l-4.53-.71c-.08-1.47-.08-4.47-.08-7.62,0-5.72,0-13.41-.32-21.56A59.68,59.68,0,0,1,156.75,97.13ZM139.3,84.05c5.15.83,8.64,3.5,10.36,7.93,3.39,8.69-.59,22.77-9.67,34.24-7,8.9-16.16,15-25.68,17.05a1.62,1.62,0,0,0,.35,3.21,2,2,0,0,0,.35,0c9.74-2.15,19-8.1,26.4-16.83a8.88,8.88,0,0,1,5.08,6.42,10.86,10.86,0,0,1,.23,2c.11,6-6.24,12.69-17,18-14.8,7.29-36.17,10.83-44.88,3.84a9.31,9.31,0,0,1-3.23-4.93,14.7,14.7,0,0,1,0-6.89c1.07.28,2.13.52,3.2.72h0a58.09,58.09,0,0,0,10.49.92c2.06,0,4.17-.09,6.31-.29a1.63,1.63,0,1,0-.29-3.24,58.29,58.29,0,0,1-15.93-.59h0A41,41,0,0,1,81,144.46c-10.33-3-18.52-9.72-22.46-18.45-2.47-5.44-3-11.08-1.25-14.7a.56.56,0,0,0,0-.12l.06-.16,0-.16a.77.77,0,0,1,0-.15.86.86,0,0,0,0-.16v-.15c0-.06,0-.11,0-.16a.83.83,0,0,0,0-.15,1.34,1.34,0,0,0-.07-.18s0-.06,0-.09c-9-16.38-12.83-29.44-13.8-39.18a49.71,49.71,0,0,1-.25-6.29c.17-6.16,1.61-10.45,3.3-12.86s3.69-3.42,5.79-3.09a5.67,5.67,0,0,1,3.09,1.47,8.2,8.2,0,0,1,1.82,2.71,45.22,45.22,0,0,1,2.39,8.64c.45,2.15.92,4.37,1.54,6.63-3.41,1.59-6.71,5.89-6.23,16.81.56,12.64,8.61,38.44,19.54,41a7.77,7.77,0,0,0,1.84.22c3.36,0,6.49-2.25,9.33-6.71,2.8,2.19,5.56,3.33,8.14,3.33a8.48,8.48,0,0,0,2.14-.27c2.46-.64,5.91-1.86,7.56-5.14a9.93,9.93,0,0,0,.58-6.59,55,55,0,0,0,8.57,2.3c-2,1.64-3.83,4-3.63,7a1.63,1.63,0,0,0,1.62,1.51h.12a1.62,1.62,0,0,0,1.5-1.73c-.16-2.35,2.55-4.66,5.12-6a69.44,69.44,0,0,0,8,.45c1.91,0,3.83-.07,5.71-.23a1.61,1.61,0,0,0,1.48-1.75,1.64,1.64,0,0,0-1.75-1.49,66.81,66.81,0,0,1-13.5-.26h0a53.21,53.21,0,0,1-15-4c-5.61-2.49-12.58-7.23-14-15.6-.65-4,0-6.94,1.9-8.83C93.92,78,101.9,79.35,102,79.36h.3a.21.21,0,0,0,.08,0c.22,0,5.39-.23,31.28,3.78Zm-25-76.25a6.73,6.73,0,0,1,7.9,1.43c5.7,5.29,8.08,20.25,9.07,35.06.09,1.37.17,2.73.24,4.09.48,9.31.47,18.18.47,24.13,0,3.38,0,5.61,0,7.11-18-2.74-25.49-3.34-28.33-3.46-.66-4.77-1.17-9.37-1.51-13.68a151.43,151.43,0,0,1-.11-24.9c.09-1.11.21-2.18.33-3.23C104.3,18.49,109.35,10.19,114.29,7.8Z"/><polygon points="150.67 33.19 153.18 29.61 146.86 25.18 147.38 24.42 153.46 28.68 155.45 25.85 149.38 21.59 149.91 20.82 156.23 25.25 158.74 21.67 147.91 14.08 139.84 25.59 150.67 33.19"/><path d="M155.11,37.4l1.42-.72,3.76,3.88-.77,1.38L163.47,46l6.62-13.37-5.36-5.54-13.57,6.21Zm8.3-4.27.64.67-1.71,3.07-2.06-2.13Z"/><polygon points="168.22 53.48 182.63 49.61 179.41 44.94 170.44 47.62 170.13 47.17 175.82 39.73 172.6 35.05 163.85 47.14 168.22 53.48"/><polygon points="172.33 61.04 174.57 66.06 178.47 64.32 189.76 65.56 187.42 60.31 182.17 59.88 182.01 59.53 185.21 55.35 182.86 50.09 176.28 59.28 172.33 61.04"/><polygon points="180.11 87.06 194.82 89.58 193.85 83.98 184.58 82.67 184.49 82.12 192.78 77.75 191.81 72.15 178.79 79.47 180.11 87.06"/><polygon points="180.65 90.55 180.72 103.78 185.08 103.76 185.05 96.04 185.97 96.04 186 103.45 189.47 103.44 189.44 96.02 190.38 96.02 190.41 103.73 194.78 103.71 194.72 90.48 180.65 90.55"/><path d="M187.77,105c-4.49-.77-8,2-8.71,6.33a6.39,6.39,0,0,0,1.18,5.38l0,.09-1.6-.19-.47,2.71L186,120.7l1.32-7.61-2.48-.43-.41,2.39a2.26,2.26,0,0,1-.82-2.45,2.77,2.77,0,1,1,5.42,1.12,2.14,2.14,0,0,1-1.26,1.77l-.93,5.39c4,.26,6.28-3,6.88-6.48C194.63,109.4,192.28,105.79,187.77,105Z"/><path d="M176.13,124.85l1.25,1-2,5-1.59-.13L171.75,136l14.92.48,2.82-7.17-11.28-9.78Zm4.57,3.61,2.76,2.18-.34.86-3.51-.28Z"/><polygon points="168.62 140.7 173.96 144.16 173.69 144.59 166.4 144.11 163.05 149.27 174.85 156.93 177.78 152.44 172.44 148.97 172.7 148.56 179.91 149.15 183.34 143.87 171.54 136.2 168.62 140.7"/><path d="M160.47,158.39a2.62,2.62,0,1,0,3.74-.09A2.68,2.68,0,0,0,160.47,158.39Z"/><polygon points="146.97 164.42 149.67 168.29 146.03 170.83 143.32 166.96 138.81 170.12 146.87 181.65 151.39 178.49 148.68 174.62 152.32 172.08 155.03 175.95 159.54 172.79 151.48 161.26 146.97 164.42"/><polygon points="126.33 175.78 128.16 179.75 135.18 176.53 135.56 177.36 128.82 180.46 130.27 183.61 137.01 180.51 137.4 181.37 130.38 184.59 132.21 188.56 144.23 183.04 138.36 170.25 126.33 175.78"/><path d="M120.38,179.07l-5.26,1.3-.8-1.37-5.52,1.35L117,192.82l7.48-1.84L126,176.13l-5.51,1.35ZM120,186.8l-.89.22-1.8-3,2.88-.71Z"/><polygon points="99.96 180.7 96.05 195.1 101.71 194.67 103.91 185.57 104.46 185.53 108.03 194.19 113.69 193.76 107.64 180.11 99.96 180.7"/><polygon points="91.37 180.47 85.9 179.89 85.45 184.14 78.71 193.28 84.43 193.88 87.43 189.55 87.81 189.6 89.82 194.46 95.56 195.07 90.91 184.77 91.37 180.47"/><polygon points="55.39 185.58 60.72 187.56 66.53 180.21 67.04 180.4 66.65 189.76 71.98 191.74 72.2 176.81 64.98 174.13 55.39 185.58"/><polygon points="50.21 166.19 48.02 169.97 54.71 173.84 54.24 174.64 47.82 170.92 46.08 173.92 52.51 177.64 52.04 178.45 45.35 174.58 43.16 178.37 54.62 185 61.67 172.82 50.21 166.19"/><path d="M45.59,171.66c2.94-3.49,2.26-7.92-1.08-10.72a6.43,6.43,0,0,0-5.23-1.69l-.08-.06,1-1.29-2.1-1.77-5.16,6.14,5.91,5,1.62-1.93-1.86-1.56a2.27,2.27,0,0,1,2.54.53,2.6,2.6,0,0,1,.28,3.85,2.64,2.64,0,0,1-4,.26,2.12,2.12,0,0,1-.89-2l-4.18-3.51c-2.23,3.29-.57,6.94,2.13,9.21C38.35,175.38,42.65,175.16,45.59,171.66Z"/><path d="M34.32,151.64l-1.49.58L29.47,148l.91-1.3-3.53-4.45-7.92,12.66,4.79,6,14.13-4.84Zm-8.68,3.42-.58-.72,2-2.89,1.84,2.32Z"/><polygon points="24.39 137.17 18.71 140.03 18.48 139.58 22.56 133.54 19.8 128.05 7.23 134.38 9.64 139.16 15.33 136.3 15.54 136.73 11.41 142.66 14.24 148.28 26.8 141.96 24.39 137.17"/><path d="M10,119.37a2.66,2.66,0,1,0,3.25,1.85A2.66,2.66,0,0,0,10,119.37Z"/></g></g></svg>