<svg xmlns="http://www.w3.org/2000/svg" viewBox="0 0 274.06 104.91"><g id="Capa_2" data-name="Capa 2"><g id="Capa_2-2" data-name="Capa 2"><path d="M261.5,25.28a4,4,0,0,0,4,0A3.64,3.64,0,0,0,267,23.8a4,4,0,0,0,0-4,3.6,3.6,0,0,0-1.49-1.48,4,4,0,0,0-3.93,0A3.66,3.66,0,0,0,260,19.82a4,4,0,0,0,0,4A3.7,3.7,0,0,0,261.5,25.28Zm-.9-5.13a3.08,3.08,0,0,1,1.25-1.23,3.32,3.32,0,0,1,3.27,0,3.08,3.08,0,0,1,1.25,1.23,3.32,3.32,0,0,1,0,3.32,3.21,3.21,0,0,1-1.24,1.24,3.33,3.33,0,0,1-3.31,0,3.21,3.21,0,0,1-1.24-1.24,3.32,3.32,0,0,1,0-3.32Z"/><path d="M262.43,22.2h.41a.88.88,0,0,1,.55.15,3.31,3.31,0,0,1,.73,1l.38.68h.84l-.52-.85a5.46,5.46,0,0,0-.63-.85,1.21,1.21,0,0,0-.37-.22,1.3,1.3,0,0,0,.89-.4,1.11,1.11,0,0,0,.34-.82,1.11,1.11,0,0,0-.74-1,3.61,3.61,0,0,0-1.1-.12h-1.47V24h.69Zm0-1.89h.79a2,2,0,0,1,.69.08.57.57,0,0,1,.4.56.58.58,0,0,1-.22.48,1.34,1.34,0,0,1-.82.18h-.84Z"/><polygon points="141 42.69 121.58 42.69 121.58 40.37 140.25 40.37 140.25 31.65 121.58 31.65 121.58 29.29 141 29.29 141 18.29 107.72 18.29 107.72 53.69 141 53.69 141 42.69"/><path d="M158.1,49.85h13.61l1.13,3.84h14.29l-12.56-35.4H155.19l-12.56,35.4h14.28Zm5.64-18.62h2.32l2.57,8.47h-7.46Z"/><polygon points="208.87 53.69 221.43 18.29 207.15 18.29 199.9 40.71 198.51 40.71 191.22 18.29 176.93 18.29 189.49 53.69 208.87 53.69"/><path d="M89.43,78.46H88L80.75,56.05H72.81l0-.15a10.59,10.59,0,0,0-1.18-2.21h8.75V41.8H91.49V53.69h13.87V18.29H91.49V30.17H80.33V18.29H66.47V49.92a13.82,13.82,0,0,0-2.13-.54L61.6,49c0-1,0-2.81,0-4.74,0-11.58,0-35.69-7-42.22A6.58,6.58,0,0,0,46.94.69C41.55,3.3,36.42,13.82,37.72,35.51,35,33.94,30,31.75,25.69,33c-2.86.84-5,3-6.27,6.4-.18.47-.34,1-.49,1.47A8.82,8.82,0,0,0,16,40.53c-.36-1.35-.67-2.69-.94-4-1-4.78-2-9.29-6.56-10a6.11,6.11,0,0,0-5.95,2.92C-1.33,35-1.94,48.62,9.05,68.76c-1.08,2.92-.73,6.86,1,10.72A24.37,24.37,0,0,0,24.76,92.2c-1.12,5.28.92,8.25,2.87,9.81,2.53,2,6.33,2.9,10.65,2.9a49.51,49.51,0,0,0,20.58-5.1C66.68,96,71.11,91,71,86.18A8.08,8.08,0,0,0,67,79.12a37.16,37.16,0,0,0,4.72-8.4L79,91.44H98.4L111,56.05H96.68ZM48,2.94a4.12,4.12,0,0,1,4.84.89c6.22,5.78,6.2,30,6.19,40.38,0,2,0,3.34,0,4.35-11-1.68-15.82-2.1-17.77-2.19-.41-3-.73-5.88-.94-8.58C38.63,15.65,43.4,5.18,48,2.94ZM21,42.82a16,16,0,0,1,.75-2.49c1-2.68,2.54-4.28,4.63-4.9,4.37-1.29,10,2.1,11.55,3.16.2,2.42.48,5,.83,7.62-2.09-.1-5.68.11-8,2.37-1.79,1.77-2.42,4.34-1.88,7.67.81,4.91,4.19,8.87,9.79,11.5.62,1.71.7,3.08.2,4.06-.64,1.27-2.23,1.81-3.37,2.1-1.92.49-4-1-5.44-2.25C24,66.06,18.74,52.84,21,42.82Zm-5.62.31a5.7,5.7,0,0,1,3,.21c-1.86,10.43,3.08,23.15,9.3,29.44-1.6,2.57-3.21,3.7-4.8,3.32-2.31-.54-4.92-4-7.16-9.38a48.56,48.56,0,0,1-3.6-14.78C12,48.33,12.4,43.87,15.39,43.13ZM64.25,78.54C59.77,84.21,54,88.07,47.91,89.4a1.25,1.25,0,0,0,.27,2.47l.26,0A31.53,31.53,0,0,0,65.38,81.11a5.63,5.63,0,0,1,3.14,5.12c.07,3.74-4,8-10.77,11.34-12.11,6-24.26,5.94-28.56,2.49-2-1.58-2.64-4-2-7.16.61.16,1.23.29,1.84.41h0a37.82,37.82,0,0,0,6.77.59c1.33,0,2.68-.06,4.06-.19a1.25,1.25,0,0,0-.22-2.49,37.27,37.27,0,0,1-10.16-.37h0c-.95-.18-1.88-.4-2.85-.68C20.06,88.26,14.86,84,12.35,78.45c-1.55-3.43-1.86-7-.8-9.25,0,0,0-.07,0-.1a1.05,1.05,0,0,0,.06-.24.62.62,0,0,0,0-.23,1.26,1.26,0,0,0-.11-.47.38.38,0,0,0,0-.1C.05,47.29,1.78,34.92,4.61,30.88A3.67,3.67,0,0,1,8.12,29c2.77.43,3.48,3.2,4.5,8,.29,1.34.58,2.7,1,4.11-2.19,1.1-4.26,3.94-4,10.89C10,60.2,15.2,76.86,22.3,78.54a5.89,5.89,0,0,0,1.24.14c2.18,0,4.2-1.41,6-4.21a8.78,8.78,0,0,0,5.17,2,5.56,5.56,0,0,0,1.41-.18c1.61-.41,3.88-1.21,5-3.4a6.35,6.35,0,0,0,.46-4,35.76,35.76,0,0,0,4.77,1.27,5.53,5.53,0,0,0-2.08,4.38,1.25,1.25,0,0,0,1.24,1.15h.1a1.25,1.25,0,0,0,1.15-1.34c-.11-1.57,2-3.06,3.11-3.64a45.54,45.54,0,0,0,8.73.13,1.25,1.25,0,0,0,1.14-1.35,1.22,1.22,0,0,0-1.35-1.14,43.52,43.52,0,0,1-8.61-.16,33.73,33.73,0,0,1-9.6-2.54c-3.55-1.58-8-4.57-8.82-9.84-.4-2.48,0-4.32,1.16-5.48C35,48,40,48.83,40,48.84a1.41,1.41,0,0,0,.29,0c.14,0,3.49-.14,20,2.43l3.63.57a10,10,0,0,1,2.52.75,7.36,7.36,0,0,1,3.61,3.45c.12.24.25.49.35.75,1.06,2.74,1,6.32-.1,10.13A33.94,33.94,0,0,1,64.25,78.54Z"/><polygon points="112.59 91.44 145.88 91.44 145.88 80.44 126.45 80.44 126.45 78.13 145.12 78.13 145.12 69.4 126.45 69.4 126.45 67.04 145.88 67.04 145.88 56.05 112.59 56.05 112.59 91.44"/><path d="M168.53,66.79c2.91,0,4.63,1.56,4.93,2.36H187.2c-1.06-9.94-10.16-14.28-19-14.28-12.77,0-20.69,7.37-20.69,18.87S156,92.62,166.93,92.62c6,0,10.28-2.19,12.81-5.22H180l.21,4h6.91V71.3H167.69v6.32h6.11c-1.23,3.24-5.1,3.08-5.73,3.08a6.55,6.55,0,0,1-6.79-7C161.28,69.36,164.19,66.79,168.53,66.79Z"/><path d="M201.3,56.05,188.75,91.44H203l1.18-3.83h13.61L219,91.44h14.28L220.68,56.05Zm6,21.4L209.86,69h2.31l2.57,8.47Z"/><polygon points="260.58 56.05 260.58 72.06 259.36 72.06 250.72 56.05 234.88 56.05 234.88 91.44 248.36 91.44 248.36 75.43 249.62 75.43 258.6 91.44 274.06 91.44 274.06 56.05 260.58 56.05"/><polygon points="229.84 42.81 229.84 53.69 243.66 53.69 243.66 42.94 258.07 18.29 243.62 18.29 237.25 29.92 236.28 29.92 229.96 18.29 223.75 18.29 220.63 27.1 229.84 42.81"/></g></g></svg>