<svg xmlns="http://www.w3.org/2000/svg" viewBox="0 0 194.83 195.11"><defs><style>.cls-1{fill:#fff;}.cls-2{fill:#fff806;}</style></defs><g id="Capa_2" data-name="Capa 2"><g id="Capa_2-2" data-name="Capa 2"><polygon points="193.86 83.99 194.83 89.58 180.11 87.06 178.8 79.47 191.81 72.15 192.78 77.75 184.49 82.12 184.59 82.67 193.86 83.99"/><polygon points="194.72 90.49 194.79 103.72 190.42 103.74 190.38 96.02 189.44 96.02 189.48 103.44 186.01 103.46 185.97 96.04 185.05 96.04 185.09 103.76 180.72 103.78 180.66 90.55 194.72 90.49"/><path d="M187.77,105c4.51.78,6.86,4.38,6,9.38-.6,3.47-2.92,6.74-6.89,6.48l.93-5.38a2.13,2.13,0,0,0,1.26-1.78,2.76,2.76,0,1,0-5.41-1.12,2.23,2.23,0,0,0,.81,2.45l.42-2.39,2.47.43-1.31,7.61-7.89-1.37.46-2.7,1.6.19,0-.1a6.41,6.41,0,0,1-1.18-5.37C179.81,107.05,183.29,104.24,187.77,105Z"/><polygon points="187.42 60.31 189.76 65.56 178.48 64.32 174.58 66.06 172.34 61.04 176.29 59.28 182.87 50.09 185.21 55.35 182.01 59.53 182.17 59.88 187.42 60.31"/><path d="M189.49,129.35l-2.81,7.18L171.75,136l2.08-5.29,1.58.14,2-5-1.25-1,2.07-5.29Zm-6.36,2.15.33-.86-2.76-2.18-1.08,2.76Z"/><polygon points="183.35 143.87 179.92 149.15 172.71 148.56 172.44 148.97 177.78 152.44 174.86 156.94 163.06 149.27 166.41 144.11 173.69 144.59 173.96 144.17 168.62 140.7 171.55 136.2 183.35 143.87"/><polygon points="179.41 44.94 182.63 49.61 168.22 53.48 163.85 47.14 172.6 35.05 175.82 39.73 170.13 47.17 170.44 47.62 179.41 44.94"/><path d="M164.74,27.12l5.36,5.53L163.47,46,159.52,42l.78-1.39-3.77-3.88-1.42.72-4-4.08Zm-.69,6.68-.64-.66-3.13,1.61,2.07,2.12Z"/><path d="M164.21,158.3a2.66,2.66,0,1,1-3.74.09A2.67,2.67,0,0,1,164.21,158.3Z"/><polygon points="151.49 161.26 159.55 172.79 155.03 175.95 152.33 172.08 148.69 174.62 151.39 178.5 146.88 181.66 138.81 170.12 143.33 166.96 146.04 170.84 149.68 168.29 146.97 164.42 151.49 161.26"/><polygon points="158.75 21.68 156.24 25.25 149.92 20.82 149.38 21.59 155.45 25.85 153.46 28.69 147.39 24.43 146.86 25.18 153.18 29.61 150.67 33.19 139.84 25.59 147.92 14.08 158.75 21.68"/><path d="M160,97.13a62.61,62.61,0,0,1-11.12,35.69,13.27,13.27,0,0,1,1.09,5.12c.15,7.37-6.71,15-18.81,21-9.7,4.78-21.75,7.92-31.93,7.92-6.66,0-12.53-1.34-16.42-4.46a12.58,12.58,0,0,1-3.69-4.8A63,63,0,0,1,40.05,70.09c-.83-9.47.87-16.38,3.73-20.46,2.34-3.34,5.6-5,9-4.43a8.72,8.72,0,0,1,5.09,2.58A62.72,62.72,0,0,1,97,34.1c.73,0,1.46,0,2.19.06,1-8.39,2.87-14.84,5.2-19.61l-1.19-.05L99.9,8l-.5,0-.3,6.36-5.36-.25L94.4,0l6.29.3,3.14,6.52.48,0,.3-6.36L110,.73l-.29,6.37a13.25,13.25,0,0,1,3.21-2.22c3.93-1.9,8.13-1.18,11.53,2a18.63,18.63,0,0,1,4,5.72l3-6.56,5,2.32-2,4.28,4,1.87,2-4.28,5,2.32L139.5,25.29l-5-2.33,2-4.28-4-1.87L131,20c2.09,7.7,3.15,17.32,3.68,26.69A63,63,0,0,1,160,97.13Zm-13,32.7A59.67,59.67,0,0,0,134.89,51c.34,8.15.34,15.84.33,21.57,0,3.14,0,6.14.07,7.61l4.53.72c6.28,1,10.74,4.45,12.88,10,3.65,9.4-.15,24.1-9.23,36.21A12.85,12.85,0,0,1,147,129.83Zm-7-3.6c9.07-11.48,13.05-25.56,9.67-34.25-1.72-4.43-5.21-7.1-10.36-7.93l-5.67-.89c-25.89-4-31.06-3.79-31.27-3.77H102c-.08,0-8.06-1.36-11.94,2.47-1.91,1.89-2.54,4.86-1.89,8.83,1.37,8.38,8.34,13.11,13.94,15.61a53.28,53.28,0,0,0,15.06,4h0a67.66,67.66,0,0,0,13.51.27,1.63,1.63,0,1,1,.26,3.24c-1.88.15-3.79.22-5.71.22a69.13,69.13,0,0,1-7.94-.45c-2.58,1.4-5.29,3.7-5.12,6a1.62,1.62,0,0,1-1.51,1.73h-.11a1.62,1.62,0,0,1-1.62-1.51c-.21-3,1.66-5.32,3.62-7a55.6,55.6,0,0,1-8.57-2.3,9.86,9.86,0,0,1-.58,6.59c-1.65,3.28-5.1,4.51-7.55,5.14a8.54,8.54,0,0,1-2.14.27c-2.58,0-5.34-1.13-8.14-3.33-2.85,4.46-6,6.71-9.34,6.71a7.84,7.84,0,0,1-1.84-.22c-10.92-2.57-19-28.37-19.54-41-.48-10.93,2.83-15.23,6.23-16.81-.61-2.27-1.09-4.48-1.54-6.63a46.19,46.19,0,0,0-2.38-8.65,8.37,8.37,0,0,0-1.83-2.71,5.64,5.64,0,0,0-3.08-1.47c-2.11-.33-4.17.76-5.8,3.09s-3.13,6.7-3.29,12.86a51.52,51.52,0,0,0,.24,6.29c1,9.74,4.76,22.8,13.8,39.18a.42.42,0,0,1,0,.1.89.89,0,0,1,.08.17.83.83,0,0,1,0,.15l0,.16a.76.76,0,0,1,0,.15v.16a.77.77,0,0,1,0,.15l0,.17a.88.88,0,0,1-.05.15.56.56,0,0,0,0,.12c-1.7,3.62-1.22,9.26,1.24,14.7,3.95,8.73,12.14,15.45,22.46,18.46a44,44,0,0,0,4.48,1.06h0a59.18,59.18,0,0,0,15.94.59,1.62,1.62,0,0,1,.29,3.23c-2.15.2-4.26.29-6.32.29a57.2,57.2,0,0,1-10.49-.92h0c-1.07-.19-2.13-.44-3.19-.71a14.67,14.67,0,0,0,0,6.88,9.1,9.1,0,0,0,2.08,3.84,9.93,9.93,0,0,0,1.15,1.09c8.72,7,30.08,3.45,44.88-3.83,10.77-5.3,17.12-12,17-18a10.89,10.89,0,0,0-.22-2,9.11,9.11,0,0,0-1.46-3.42,8.87,8.87,0,0,0-3.63-3c-7.34,8.73-16.65,14.69-26.39,16.83a2.21,2.21,0,0,1-.35,0,1.62,1.62,0,0,1-.35-3.21C123.84,141.18,133,135.13,140,126.23Zm-8-46.61c-.05-1.5-.05-3.73-.05-7.11,0-5.94,0-14.82-.46-24.13-.07-1.36-.15-2.72-.25-4.09-1-14.8-3.37-29.77-9.06-35-1.7-1.58-4.45-3.11-7.91-1.44-4.94,2.39-10,10.7-11.89,26.55-.13,1-.24,2.12-.34,3.23a150.44,150.44,0,0,0,.12,24.9c.33,4.31.84,8.91,1.51,13.68C106.53,76.28,114.06,76.88,132,79.62Zm-31.53,36c.82-1.62.69-3.88-.35-6.7-8.7-4.06-14-10.18-15.2-17.75-.83-5.08.12-9,2.83-11.68,3.64-3.6,9.46-3.79,12.6-3.59-.58-4.31-1-8.48-1.36-12.42-2.36-1.58-11.36-7.13-18.42-5.06-3.32,1-5.82,3.62-7.44,7.84A28.19,28.19,0,0,0,72,70.22c-3.57,15.74,4.65,36.5,14.27,45.3,3.21,3,6.32,4.22,8.78,3.59C97,118.59,99.45,117.73,100.49,115.65ZM98.71,59.49a147.19,147.19,0,0,1,.12-22.09c-.62,0-1.24,0-1.86,0A59.48,59.48,0,0,0,59.7,50.44c1.46,2.8,2.23,6.41,3,10.13.45,2.11.91,4.28,1.51,6.48a13.41,13.41,0,0,1,5.06.65c.25-.89.52-1.76.84-2.58,2-5.21,5.21-8.51,9.56-9.78C86.62,53.3,94.58,57.06,98.71,59.49ZM78.1,153.84a19.37,19.37,0,0,1,.42-6.74c-10.51-3.47-18.85-10.59-23-19.75-2.73-6-3.29-12.16-1.56-16.64-7.3-13.37-11.31-24.87-13.06-34.34A59.77,59.77,0,0,0,78.1,153.84Zm-3-31.32c2.67.64,5.35-1.23,8-5.52-9.58-9.58-17.54-30-14.56-46.13a9.34,9.34,0,0,0-5.09-.41c-4.88,1.21-5.6,8.32-5.35,14.07C58.67,97.47,66.87,120.57,75.13,122.52Z"/><path class="cls-1" d="M156.75,97.13a59.44,59.44,0,0,1-9.77,32.7,12.85,12.85,0,0,0-3.51-2.82c9.08-12.11,12.88-26.81,9.23-36.21-2.14-5.5-6.6-8.94-12.88-10l-4.53-.72c-.08-1.47-.07-4.47-.07-7.61,0-5.73,0-13.42-.33-21.57A59.69,59.69,0,0,1,156.75,97.13Z"/><path class="cls-2" d="M149.67,92c3.38,8.69-.6,22.77-9.67,34.25-7,8.9-16.16,15-25.68,17a1.62,1.62,0,0,0,.35,3.21,2.21,2.21,0,0,0,.35,0c9.74-2.14,19-8.1,26.39-16.83a8.87,8.87,0,0,1,3.63,3A9.11,9.11,0,0,1,146.5,136a10.89,10.89,0,0,1,.22,2c.12,6-6.23,12.69-17,18-14.8,7.28-36.16,10.82-44.88,3.83a9.93,9.93,0,0,1-1.15-1.09,9.1,9.1,0,0,1-2.08-3.84,14.67,14.67,0,0,1,0-6.88c1.06.27,2.12.52,3.19.71h0a57.2,57.2,0,0,0,10.49.92c2.06,0,4.17-.09,6.32-.29a1.62,1.62,0,0,0-.29-3.23,59.18,59.18,0,0,1-15.94-.59h0A44,44,0,0,1,81,144.47c-10.32-3-18.51-9.73-22.46-18.46-2.46-5.44-2.94-11.08-1.24-14.7a.56.56,0,0,1,0-.12.88.88,0,0,0,.05-.15l0-.17a.77.77,0,0,0,0-.15v-.16a.76.76,0,0,0,0-.15l0-.16a.83.83,0,0,0,0-.15.89.89,0,0,0-.08-.17.42.42,0,0,0,0-.1c-9-16.38-12.83-29.44-13.8-39.18a51.52,51.52,0,0,1-.24-6.29c.16-6.16,1.6-10.45,3.29-12.86s3.69-3.42,5.8-3.09a5.64,5.64,0,0,1,3.08,1.47,8.37,8.37,0,0,1,1.83,2.71,46.19,46.19,0,0,1,2.38,8.65c.45,2.15.93,4.36,1.54,6.63-3.4,1.58-6.71,5.88-6.23,16.81.57,12.63,8.62,38.43,19.54,41a7.84,7.84,0,0,0,1.84.22c3.36,0,6.49-2.25,9.34-6.71,2.8,2.2,5.56,3.33,8.14,3.33a8.54,8.54,0,0,0,2.14-.27c2.45-.63,5.9-1.86,7.55-5.14a9.86,9.86,0,0,0,.58-6.59,55.6,55.6,0,0,0,8.57,2.3c-2,1.65-3.83,4-3.62,7a1.62,1.62,0,0,0,1.62,1.51h.11a1.62,1.62,0,0,0,1.51-1.73c-.17-2.35,2.54-4.65,5.12-6a69.13,69.13,0,0,0,7.94.45c1.92,0,3.83-.07,5.71-.22a1.63,1.63,0,1,0-.26-3.24,67.66,67.66,0,0,1-13.51-.27h0a53.28,53.28,0,0,1-15.06-4c-5.6-2.5-12.57-7.23-13.94-15.61-.65-4,0-6.94,1.89-8.83C93.92,78,101.9,79.35,102,79.37h.39c.21,0,5.38-.24,31.27,3.77l5.67.89C144.46,84.88,148,87.55,149.67,92Z"/><polygon points="138.36 170.25 144.24 183.04 132.22 188.57 130.39 184.59 137.41 181.37 137.01 180.52 130.27 183.61 128.82 180.46 135.57 177.36 135.18 176.53 128.16 179.75 126.34 175.78 138.36 170.25"/><path class="cls-2" d="M132,72.51c0,3.38,0,5.61.05,7.11-18-2.74-25.49-3.34-28.33-3.46-.67-4.77-1.18-9.37-1.51-13.68a150.44,150.44,0,0,1-.12-24.9c.1-1.11.21-2.18.34-3.23,1.91-15.85,6.95-24.16,11.89-26.55,3.46-1.67,6.21-.14,7.91,1.44,5.69,5.28,8.07,20.25,9.06,35.05.1,1.37.18,2.73.25,4.09C132,57.69,132,66.57,132,72.51Z"/><path d="M126,176.13,124.5,191,117,192.83l-8.2-12.48,5.51-1.35.81,1.37,5.25-1.29.09-1.6Zm-6,10.67.19-3.51-2.88.71,1.79,3Z"/><polygon points="107.65 180.12 113.69 193.76 108.03 194.19 104.46 185.53 103.91 185.57 101.72 194.68 96.06 195.11 99.97 180.7 107.65 180.12"/><path class="cls-2" d="M100.14,109c1,2.82,1.17,5.08.35,6.7-1,2.08-3.47,2.94-5.47,3.46-2.46.63-5.57-.64-8.78-3.59C76.62,106.72,68.4,86,72,70.22a28.19,28.19,0,0,1,1.18-3.93c1.62-4.22,4.12-6.86,7.44-7.84,7.06-2.07,16.06,3.48,18.42,5.06.32,3.94.78,8.11,1.36,12.42-3.14-.2-9,0-12.6,3.59-2.71,2.67-3.66,6.6-2.83,11.68C86.18,98.77,91.44,104.89,100.14,109Z"/><path class="cls-1" d="M98.83,37.4a147.19,147.19,0,0,0-.12,22.09c-4.13-2.43-12.09-6.19-19-4.15-4.35,1.27-7.57,4.57-9.56,9.78-.32.82-.59,1.69-.84,2.58a13.41,13.41,0,0,0-5.06-.65c-.6-2.2-1.06-4.37-1.51-6.48-.78-3.72-1.55-7.33-3-10.13A59.48,59.48,0,0,1,97,37.35C97.59,37.35,98.21,37.38,98.83,37.4Z"/><polygon points="90.91 184.77 95.56 195.07 89.83 194.46 87.82 189.6 87.44 189.56 84.43 193.89 78.72 193.28 85.45 184.14 85.91 179.89 91.37 180.47 90.91 184.77"/><path d="M86.36.84,93.46,14l-5.61.87-.68-1.43-5.35.83-.23,1.58-5.6.87L78.75,2Zm-1,8.77L83.81,6.44l-.91.14-.49,3.48Z"/><path class="cls-1" d="M78.52,147.1a19.37,19.37,0,0,0-.42,6.74A59.77,59.77,0,0,1,40.91,76.37c1.75,9.47,5.76,21,13.06,34.34-1.73,4.48-1.17,10.62,1.56,16.64C59.67,136.51,68,143.63,78.52,147.1Z"/><path class="cls-2" d="M83.09,117c-2.61,4.29-5.29,6.16-8,5.52-8.26-2-16.46-25-17-38-.25-5.75.47-12.86,5.35-14.07a9.34,9.34,0,0,1,5.09.41C65.55,87,73.51,107.42,83.09,117Z"/><path d="M73,9.34l2.78,7.51-2.58.95-.64-1.48-.09,0a6.4,6.4,0,0,1-4.06,3.72c-4.08,1.51-8.26-.09-9.85-4.36s.35-8.14,5.12-9.9C67,4.6,71,5,72.77,8.53l-5.12,1.89a2.13,2.13,0,0,0-2.16-.2,2.64,2.64,0,0,0-1.75,3.6,2.6,2.6,0,0,0,3.49,1.65c.24-.09,1.71-.56,1.72-1.94l-2.28.85L65.79,12Z"/><polygon points="72.21 176.81 71.99 191.75 66.66 189.77 67.05 180.4 66.53 180.21 60.72 187.56 55.4 185.58 64.98 174.13 72.21 176.81"/><polygon points="61.67 172.82 54.62 185 43.17 178.37 45.36 174.58 52.04 178.45 52.51 177.64 46.09 173.92 47.83 170.92 54.25 174.64 54.71 173.85 48.03 169.97 50.22 166.19 61.67 172.82"/><polygon points="58.88 18.66 61.09 22.43 49.68 29.13 42.56 17 53.97 10.3 56.18 14.07 49.52 17.98 50 18.79 56.4 15.03 58.15 18.02 51.75 21.77 52.22 22.57 58.88 18.66"/><polygon points="41.69 17.38 46.94 31.36 41.05 36.32 28.16 28.78 32.51 25.12 40.46 30.07 40.89 29.71 37.35 21.04 41.69 17.38"/><path d="M44.52,160.94c3.33,2.81,4,7.23,1.08,10.72s-7.24,3.72-11.13.45c-2.69-2.26-4.35-5.92-2.13-9.21l4.18,3.51a2.14,2.14,0,0,0,.9,2,2.77,2.77,0,1,0,3.7-4.11,2.27,2.27,0,0,0-2.53-.53l1.86,1.56-1.62,1.93-5.91-5,5.15-6.13,2.1,1.77-1,1.28.08.06A6.44,6.44,0,0,1,44.52,160.94Z"/><path d="M34.32,151.64l3.53,4.44-14.12,4.84-4.79-6,7.91-12.66,3.53,4.45-.91,1.3,3.37,4.24Zm-5.4,2.13-1.85-2.32-2,2.89.57.72Z"/><polygon points="31.61 46.71 28.42 51.18 24.9 48.67 13.64 47.64 17 42.95 22.22 43.6 22.44 43.29 20.15 38.54 23.5 33.86 28.14 44.23 31.61 46.71"/><polygon points="24.4 137.17 26.81 141.96 14.25 148.29 11.41 142.66 15.55 136.73 15.33 136.3 9.65 139.16 7.24 134.38 19.8 128.05 22.56 133.54 18.49 139.59 18.71 140.03 24.4 137.17"/><polygon points="23.93 58.57 20.64 65.54 5.78 64.05 8.21 58.91 17.5 60.09 17.74 59.59 10.91 53.18 13.33 48.05 23.93 58.57"/><path d="M19.87,66.42l-1.54,5.46-1.59,0-1.46,5.21,1.34.86-1.54,5.46L2.89,74.82,5,67.4Zm-8.14,8.41.8-2.85L9,72.05l-.25.89Z"/><polygon points="14.95 107.47 15.46 112.95 1.46 114.27 0.94 108.79 5.64 108.34 5.22 103.93 0.52 104.37 0 98.88 14.01 97.56 14.53 103.05 9.83 103.49 10.24 107.91 14.95 107.47"/><polygon points="15.2 83.94 14.11 97.12 0.09 95.96 1.18 82.78 5.54 83.14 4.9 90.83 5.83 90.91 6.45 83.52 9.9 83.8 9.29 91.2 10.21 91.27 10.84 83.58 15.2 83.94"/><path d="M13.23,121.22a2.69,2.69,0,0,1-1.81,3.28,2.66,2.66,0,1,1,1.81-3.28Z"/></g></g></svg>