<svg xmlns="http://www.w3.org/2000/svg" viewBox="0 0 119.78 170.55"><defs><style>.cls-1{fill:#fff806;}</style></defs><g id="Capa_2" data-name="Capa 2"><g id="Capa_2-2" data-name="Capa 2"><path d="M118.27,90.86c3.89,10,.09,24.94-9.43,37.76a13.05,13.05,0,0,1,6.61,11.48c.16,7.81-7,15.89-19.76,22.15-10.15,5-22.76,8.3-33.45,8.3-7,0-13.21-1.43-17.33-4.72-3.16-2.54-6.47-7.36-4.65-16-10.91-3.68-19.55-11.12-23.87-20.66-2.86-6.29-3.46-12.73-1.69-17.48C-3.14,79-2.16,56.91,4.17,47.88c2.52-3.6,6.05-5.33,9.67-4.76,7.48,1.18,9,8.52,10.67,16.28.44,2.12.91,4.29,1.5,6.49a14.28,14.28,0,0,1,4.77.59c.24-.81.51-1.61.8-2.38,2.12-5.54,5.55-9,10.19-10.41,7.06-2.08,15.07,1.49,19.55,4-2.1-35.26,6.24-52.36,15-56.6,4.24-2,8.76-1.28,12.41,2.11C100.14,13.85,100.1,53,100.09,71.88c0,3.11,0,6.1.06,7.7l4.44.7C111.26,81.35,116,85,118.27,90.86Zm-13.81,36.83c9.39-11.87,13.51-26.41,10-35.36-1.75-4.49-5.3-7.2-10.54-8l-5.86-.93h0l-.12,0c-26.77-4.15-32.2-3.93-32.43-3.92h-.09l-.31,0H65c-.08,0-8.22-1.38-12.13,2.49C51,83.77,50.37,86.77,51,90.79c1.41,8.57,8.57,13.43,14.34,16A55.23,55.23,0,0,0,81,110.9h0a69.72,69.72,0,0,0,14,.28A2,2,0,0,1,97.16,113a2,2,0,0,1-1.86,2.19q-3,.24-6,.24a72,72,0,0,1-8.19-.47c-2.57,1.42-5.22,3.68-5.06,5.93a2,2,0,0,1-1.89,2.17H74a2,2,0,0,1-2-1.89c-.2-3,1.48-5.35,3.39-7.1a59,59,0,0,1-7.76-2.07,10.4,10.4,0,0,1-.74,6.5c-1.78,3.54-5.47,4.85-8.1,5.53a8.91,8.91,0,0,1-2.3.3c-2.67,0-5.52-1.14-8.39-3.33-3,4.56-6.27,6.86-9.81,6.86a8.76,8.76,0,0,1-2-.24c-11.54-2.72-20-29.81-20.63-43.06-.5-11.29,2.87-15.91,6.43-17.7-.61-2.28-1.08-4.51-1.54-6.67-1.66-7.9-2.82-12.39-7.32-13.11-2.07-.33-4.09.77-5.71,3.08C2.9,56.78.09,76.9,18.72,110.65a1.17,1.17,0,0,1,.05.11,1.6,1.6,0,0,1,.1.23.85.85,0,0,1,0,.17,1.6,1.6,0,0,1,.05.21,1.09,1.09,0,0,1,0,.18v.21a1.08,1.08,0,0,1,0,.19l0,.2c0,.07-.05.13-.07.2s0,.1-.05.14c-1.73,3.7-1.23,9.47,1.3,15.06,4.07,9,12.53,15.93,23.19,19a45.08,45.08,0,0,0,4.64,1.1,60.6,60.6,0,0,0,16.52.62,2,2,0,1,1,.37,4q-3.37.3-6.61.3a60,60,0,0,1-11-1h0c-1-.18-2-.41-3-.65-1,5.14.07,9.06,3.28,11.63,7,5.6,26.74,5.65,46.43-4,11.08-5.46,17.62-12.35,17.5-18.42a9.12,9.12,0,0,0-5.1-8.33c-7.67,9-17.38,15.21-27.53,17.44a2.2,2.2,0,0,1-.44,0,2,2,0,0,1-.43-4C87.73,143.17,97.17,136.9,104.46,127.69ZM96,71.88C96,55,96.07,15.62,86,6.22c-1.7-1.57-4.44-3.1-7.88-1.43C70.57,8.42,62.8,25.44,65.65,61.44c.33,4.39.86,9.09,1.53,14,3.17.15,11,.82,28.89,3.54C96,77.31,96,75,96,71.88ZM63.25,116.72c.79-1.58.67-3.8-.34-6.59-9.1-4.28-14.59-10.72-15.9-18.69-.88-5.4.15-9.59,3.05-12.46,3.73-3.68,9.57-4,13-3.86-.58-4.3-1-8.45-1.36-12.39C59.06,61,50,55.51,42.9,57.59c-3.4,1-5.86,3.61-7.52,8a27.83,27.83,0,0,0-1.22,4.06c-3.7,16.29,4.82,37.77,14.78,46.86,3.26,3,6.39,4.3,8.82,3.67C59.78,119.63,62.22,118.76,63.25,116.72Zm-26,7c2.58.62,5.21-1.2,7.8-5.38-9.91-10.07-18.1-31.14-15.15-47.88A9.16,9.16,0,0,0,25,70.12c-4.87,1.21-5.58,8.45-5.32,14.31C20.3,97.81,28.73,121.71,37.2,123.71Z"/><path class="cls-1" d="M114.49,92.33c3.48,9-.64,23.49-10,35.36-7.29,9.21-16.73,15.48-26.57,17.64a2,2,0,0,0,.43,4,2.2,2.2,0,0,0,.44,0c10.15-2.23,19.86-8.4,27.53-17.44a9.12,9.12,0,0,1,5.1,8.33c.12,6.07-6.42,13-17.5,18.42-19.69,9.7-39.44,9.65-46.43,4-3.21-2.57-4.29-6.49-3.28-11.63,1,.24,2,.47,3,.65h0a60,60,0,0,0,11,1q3.24,0,6.61-.3a2,2,0,1,0-.37-4,60.6,60.6,0,0,1-16.52-.62,45.08,45.08,0,0,1-4.64-1.1c-10.66-3.1-19.12-10-23.19-19-2.53-5.59-3-11.36-1.3-15.06,0,0,0-.09.05-.14s.05-.13.07-.2l0-.2a1.08,1.08,0,0,0,0-.19v-.21a1.09,1.09,0,0,0,0-.18,1.6,1.6,0,0,0-.05-.21.85.85,0,0,0,0-.17,1.6,1.6,0,0,0-.1-.23,1.17,1.17,0,0,0-.05-.11C.09,76.9,2.9,56.78,7.5,50.21c1.62-2.31,3.64-3.41,5.71-3.08,4.5.72,5.66,5.21,7.32,13.11.46,2.16.93,4.39,1.54,6.67-3.56,1.79-6.93,6.41-6.43,17.7.59,13.25,9.09,40.34,20.63,43.06a8.76,8.76,0,0,0,2,.24c3.54,0,6.83-2.3,9.81-6.86,2.87,2.19,5.72,3.33,8.39,3.33a8.91,8.91,0,0,0,2.3-.3c2.63-.68,6.32-2,8.1-5.53a10.4,10.4,0,0,0,.74-6.5,59,59,0,0,0,7.76,2.07c-1.91,1.75-3.59,4.14-3.39,7.1a2,2,0,0,0,2,1.89h.14a2,2,0,0,0,1.89-2.17c-.16-2.25,2.49-4.51,5.06-5.93a72,72,0,0,0,8.19.47q3,0,6-.24A2,2,0,0,0,97.16,113,2,2,0,0,0,95,111.18a69.72,69.72,0,0,1-14-.28h0a55.23,55.23,0,0,1-15.59-4.1c-5.77-2.58-12.93-7.44-14.34-16-.65-4,0-7,1.89-8.91C56.82,78,65,79.38,65,79.39h.08l.31,0h.09c.23,0,5.66-.23,32.43,3.92l.12,0h0l5.86.93C109.19,85.13,112.74,87.84,114.49,92.33Z"/><path class="cls-1" d="M86,6.22C96.07,15.62,96,55,96,71.88c0,3.16,0,5.43,0,7.06-17.86-2.72-25.72-3.39-28.89-3.54-.67-4.87-1.2-9.57-1.53-14-2.85-36,4.92-53,12.43-56.65C81.52,3.12,84.26,4.65,86,6.22Z"/><path class="cls-1" d="M62.91,110.13c1,2.79,1.13,5,.34,6.59-1,2-3.47,2.91-5.49,3.43-2.43.63-5.56-.67-8.82-3.67-10-9.09-18.48-30.57-14.78-46.86a27.83,27.83,0,0,1,1.22-4.06c1.66-4.36,4.12-7,7.52-8C50,55.51,59.06,61,61.68,62.73c.32,3.94.78,8.09,1.36,12.39-3.41-.17-9.25.18-13,3.86C47.16,81.85,46.13,86,47,91.44,48.32,99.41,53.81,105.85,62.91,110.13Z"/><path class="cls-1" d="M45,118.33c-2.59,4.18-5.22,6-7.8,5.38-8.47-2-16.9-25.9-17.5-39.28-.26-5.86.45-13.1,5.32-14.31a9.16,9.16,0,0,1,4.83.33C26.9,87.19,35.09,108.26,45,118.33Z"/></g></g></svg>