<svg xmlns="http://www.w3.org/2000/svg" viewBox="0 0 358.2 80.57"><defs><style>.cls-1{fill:#fff806;}</style></defs><g id="Capa_2" data-name="Capa 2"><g id="Capa_2-2" data-name="Capa 2"><path d="M357.79,31.69a3.17,3.17,0,0,1,.41,1.54,3.07,3.07,0,0,1-.41,1.52,2.82,2.82,0,0,1-1.13,1.14,3.1,3.1,0,0,1-1.53.4,3.06,3.06,0,0,1-1.52-.4,2.84,2.84,0,0,1-1.14-1.14,3.09,3.09,0,0,1,0-3.06,2.78,2.78,0,0,1,1.15-1.13,3,3,0,0,1,3,0A2.84,2.84,0,0,1,357.79,31.69Zm-.1,1.54a2.58,2.58,0,0,0-.34-1.28,2.37,2.37,0,0,0-1-.95,2.64,2.64,0,0,0-1.26-.33,2.57,2.57,0,0,0-1.25.33,2.37,2.37,0,0,0-1,.95,2.6,2.6,0,0,0-.35,1.28,2.63,2.63,0,0,0,.34,1.27,2.48,2.48,0,0,0,.95,1,2.56,2.56,0,0,0,2.55,0,2.39,2.39,0,0,0,.94-1A2.52,2.52,0,0,0,357.69,33.23Z"/><path d="M356.16,34.28l.4.64h-.65l-.29-.52a2.68,2.68,0,0,0-.56-.76.67.67,0,0,0-.43-.12h-.31v1.4h-.53v-3.3h1.13a2.71,2.71,0,0,1,.84.1.75.75,0,0,1,.42.32.85.85,0,0,1,.15.48.88.88,0,0,1-.25.63,1,1,0,0,1-.69.3,1,1,0,0,1,.28.17A3.72,3.72,0,0,1,356.16,34.28Zm-.39-1.72a.45.45,0,0,0-.31-.43,1.54,1.54,0,0,0-.53-.06h-.61v1H355a1,1,0,0,0,.63-.14A.45.45,0,0,0,355.77,32.56Z"/><polygon points="348.84 31.07 348.84 58.25 336.97 58.25 330.07 45.95 329.1 45.95 329.1 58.25 318.75 58.25 318.75 31.07 330.91 31.07 337.55 43.37 338.49 43.37 338.49 31.07 348.84 31.07"/><path d="M307.85,31.07l9.64,27.18h-11l-.87-2.94H295.2l-.91,2.94h-11L293,31.07Zm-4.56,16.44-2-6.51h-1.78l-2,6.51Z"/><path d="M282.13,41.13H271.58a4.15,4.15,0,0,0-3.79-1.81c-3.33,0-5.57,2-5.57,5.34A5,5,0,0,0,267.44,50c.48,0,3.46.13,4.4-2.36h-4.7V42.78h14.92V58.25h-5.3l-.17-3.1h-.19c-1.94,2.32-5.24,4-9.84,4-8.41,0-14.92-5.7-14.92-14.5s6.09-14.5,15.89-14.5C274.33,30.16,281.32,33.5,282.13,41.13Z"/><polygon points="250.39 49.81 250.39 58.25 224.83 58.25 224.83 31.07 250.39 31.07 250.39 39.51 235.47 39.51 235.47 41.33 249.81 41.33 249.81 48.03 235.47 48.03 235.47 49.81 250.39 49.81"/><path d="M223.58,31.07l-9.65,27.18H199.05l-2-5.69a28.12,28.12,0,0,1-4.26,8.2,6.22,6.22,0,0,1,3.12,5.42c.08,3.7-3.32,7.51-9.34,10.47a39.59,39.59,0,0,1-9.17,3.16L177,78a37.53,37.53,0,0,0,8.71-3c5.23-2.58,8.32-5.83,8.26-8.71a4.3,4.3,0,0,0-2.41-3.93,24.18,24.18,0,0,1-13,8.24.76.76,0,0,1-.21,0,1,1,0,0,1-.21-1.9,22.61,22.61,0,0,0,12.56-8.34,24.73,24.73,0,0,0,5.14-11.11,11,11,0,0,0-.4-5.59,5.68,5.68,0,0,0-2.66-3,7.62,7.62,0,0,0-2.32-.75l-2.78-.44c-12.69-2-15.28-1.87-15.38-1.86h-.23s-3.88-.66-5.73,1.17c-.9.89-1.2,2.31-.89,4.21.66,4,4.05,6.34,6.77,7.56a26.16,26.16,0,0,0,7.37,1.95,33.34,33.34,0,0,0,6.62.12,1,1,0,1,1,.16,1.91,34.14,34.14,0,0,1-6.7-.1c-.83.45-2.48,1.59-2.39,2.81a1,1,0,0,1-.89,1h-.07a1,1,0,0,1-1-.89A4.27,4.27,0,0,1,177,53.91a26.59,26.59,0,0,1-3.67-1,4.86,4.86,0,0,1-.36,3.07,5.51,5.51,0,0,1-3.82,2.61,4.46,4.46,0,0,1-1.09.14,6.73,6.73,0,0,1-4-1.57c-1.41,2.15-3,3.24-4.64,3.24a4.45,4.45,0,0,1-.94-.11c-2.73-.65-5.09-4.17-6.81-8.31a39.46,39.46,0,0,1-2.93-12c-.24-5.34,1.35-7.52,3-8.36-.3-1.08-.52-2.13-.73-3.15-.79-3.73-1.34-5.86-3.46-6.19a2.32,2.32,0,0,0-1,.06l-.38-1.87a3.87,3.87,0,0,1,1.66-.09c3.53.55,4.26,4,5,7.69.2,1,.44,2,.71,3.06a6.77,6.77,0,0,1,2.24.29c.12-.39.24-.77.39-1.13a7.48,7.48,0,0,1,4.81-4.92c3.34-1,7.12.7,9.24,1.91-1-16.66,2.94-24.74,7.08-26.74a5.06,5.06,0,0,1,5.86,1c5.4,5,5.38,23.54,5.37,32.44,0,1.47,0,2.88,0,3.63l2.11.33a10.16,10.16,0,0,1,1.15.26l-2.52-7.11h11L206,48.28H207l5.57-17.21Zm-36.84,6.22c0-.77,0-1.83,0-3.34,0-8,0-26.57-4.75-31a3.19,3.19,0,0,0-3.73-.69C174.69,4,171,12,172.36,29c.16,2.08.41,4.29.72,6.59C174.58,35.68,178.29,36,186.74,37.29ZM171.23,55.15a4,4,0,0,0-.16-3.12c-4.3-2-6.9-5.06-7.51-8.83-.43-2.55.07-4.53,1.43-5.89,1.77-1.74,4.53-1.9,6.14-1.82-.28-2-.49-4-.65-5.86-1.22-.81-5.51-3.41-8.87-2.42-1.6.47-2.76,1.7-3.55,3.76a15.22,15.22,0,0,0-.58,1.91c-1.74,7.71,2.28,17.85,7,22.15,1.09,1,2.71,2.11,4.17,1.73A3.83,3.83,0,0,0,171.23,55.15Zm-12.31,3.29c1.22.3,2.46-.57,3.68-2.55-4.76-4.83-8.56-14.6-7.14-22.61a4.37,4.37,0,0,0-2.29-.16c-2.3.57-2.63,4-2.51,6.77a36.9,36.9,0,0,0,2.77,11.35C155.15,55.4,157.15,58,158.92,58.44Z"/><path class="cls-1" d="M195.44,43.62a11,11,0,0,1,.4,5.59,24.73,24.73,0,0,1-5.14,11.11,22.61,22.61,0,0,1-12.56,8.34,1,1,0,0,0,.21,1.9.76.76,0,0,0,.21,0,24.18,24.18,0,0,0,13-8.24A4.3,4.3,0,0,1,194,66.22c.06,2.88-3,6.13-8.26,8.71A37.53,37.53,0,0,1,177,78c-5.94,1.26-11,.67-13.24-1.13-1.51-1.22-2-3.07-1.54-5.5.48.12.95.23,1.42.31a29.09,29.09,0,0,0,5.2.45c1,0,2.07,0,3.13-.13a1,1,0,0,0,.86-1,.94.94,0,0,0-1-.87,28.56,28.56,0,0,1-7.8-.29,22.56,22.56,0,0,1-2.2-.52,17,17,0,0,1-10.95-9c-1.2-2.64-1.44-5.36-.62-7.11a.64.64,0,0,0,0-.07,1.33,1.33,0,0,0,0-.19c0-.06,0-.11,0-.17a.52.52,0,0,0,0-.18c0-.06,0-.12-.05-.18s0-.06,0-.07l1.48-.27c1.72,4.14,4.08,7.66,6.81,8.31a4.45,4.45,0,0,0,.94.11c1.68,0,3.23-1.09,4.64-3.24a6.73,6.73,0,0,0,4,1.57,4.46,4.46,0,0,0,1.09-.14A5.51,5.51,0,0,0,172.94,56a4.86,4.86,0,0,0,.36-3.07,26.59,26.59,0,0,0,3.67,1,4.27,4.27,0,0,0-1.61,3.37,1,1,0,0,0,1,.89h.07a1,1,0,0,0,.89-1c-.09-1.22,1.56-2.36,2.39-2.81a34.14,34.14,0,0,0,6.7.1,1,1,0,1,0-.16-1.91,33.34,33.34,0,0,1-6.62-.12,26.16,26.16,0,0,1-7.37-1.95c-2.72-1.22-6.11-3.51-6.77-7.56-.31-1.9,0-3.32.89-4.21,1.85-1.83,5.7-1.18,5.73-1.17h.23c.1,0,2.69-.11,15.38,1.86l2.78.44a7.62,7.62,0,0,1,2.32.75A5.68,5.68,0,0,1,195.44,43.62Z"/><path class="cls-1" d="M186.71,34c0,1.51,0,2.57,0,3.34-8.45-1.29-12.16-1.61-13.66-1.68-.31-2.3-.56-4.51-.72-6.59C171,12,174.69,4,178.23,2.25a3.19,3.19,0,0,1,3.73.69C186.74,7.38,186.72,26,186.71,34Z"/><path d="M177,78l.38,1.83a31.82,31.82,0,0,1-6.63.76c-3.31,0-6.24-.67-8.18-2.23-1.5-1.2-3.06-3.47-2.2-7.53a18.72,18.72,0,0,1-11.28-9.76,11.2,11.2,0,0,1-.79-8.24,63.26,63.26,0,0,1-5.74-13.89L136.09,50v8.25H125.47V49.9l-8.18-14-7.92,22.32H94.48L84.84,31.07h11l5.6,17.21h1.07L108,31.07h17.53L130.42,40h.75l4.88-8.93h5.31c-.09-3.83.71-6.68,2-8.46a5.21,5.21,0,0,1,2.91-2.15l.38,1.87a3.36,3.36,0,0,0-1.72,1.39c-.91,1.31-1.68,3.76-1.6,7.35a30.18,30.18,0,0,0,.67,5.45,57.89,57.89,0,0,0,6.23,15.76s0,0,0,.07,0,.12.05.18a.52.52,0,0,1,0,.18c0,.06,0,.11,0,.17a1.33,1.33,0,0,1,0,.19.64.64,0,0,1,0,.07c-.82,1.75-.58,4.47.62,7.11a17,17,0,0,0,10.95,9,22.56,22.56,0,0,0,2.2.52,28.56,28.56,0,0,0,7.8.29.94.94,0,0,1,1,.87,1,1,0,0,1-.86,1c-1.06.09-2.11.13-3.13.13a29.09,29.09,0,0,1-5.2-.45c-.47-.08-.94-.19-1.42-.31-.48,2.43,0,4.28,1.54,5.5C166,78.65,171.06,79.24,177,78Z"/><path class="cls-1" d="M171.07,52a4,4,0,0,1,.16,3.12,3.83,3.83,0,0,1-2.6,1.61c-1.46.38-3.08-.73-4.17-1.73-4.7-4.3-8.72-14.44-7-22.15a15.22,15.22,0,0,1,.58-1.91c.79-2.06,1.95-3.29,3.55-3.76,3.36-1,7.65,1.61,8.87,2.42.16,1.86.37,3.82.65,5.86-1.61-.08-4.37.08-6.14,1.82-1.36,1.36-1.86,3.34-1.43,5.89C164.17,47,166.77,50,171.07,52Z"/><path class="cls-1" d="M162.6,55.89c-1.22,2-2.46,2.85-3.68,2.55-1.77-.41-3.77-3-5.49-7.2a36.9,36.9,0,0,1-2.77-11.35c-.12-2.78.21-6.2,2.51-6.77a4.37,4.37,0,0,1,2.29.16C154,41.29,157.84,51.06,162.6,55.89Z"/><path class="cls-1" d="M151.67,52l-1.48.27A57.89,57.89,0,0,1,144,36.52a30.18,30.18,0,0,1-.67-5.45c-.08-3.59.69-6,1.6-7.35a3.36,3.36,0,0,1,1.72-1.39,2.32,2.32,0,0,1,1-.06c2.12.33,2.67,2.46,3.46,6.19.21,1,.43,2.07.73,3.15-1.69.84-3.28,3-3,8.36A39.46,39.46,0,0,0,151.67,52Z"/><path d="M83,31.07l9.65,27.18h-11l-.88-2.94H70.37l-.91,2.94h-11l9.65-27.18ZM78.46,47.51l-2-6.51H74.71l-2,6.51Z"/><polygon points="57.24 49.81 57.24 58.25 31.68 58.25 31.68 31.07 57.24 31.07 57.24 39.51 42.32 39.51 42.32 41.33 56.66 41.33 56.66 48.03 42.32 48.03 42.32 49.81 57.24 49.81"/><polygon points="29.86 31.07 29.86 58.25 19.22 58.25 19.22 49.13 10.64 49.13 10.64 58.25 0 58.25 0 31.07 10.64 31.07 10.64 40.19 19.22 40.19 19.22 31.07 29.86 31.07"/></g></g></svg>