<svg xmlns="http://www.w3.org/2000/svg" viewBox="0 0 274.06 104.91"><defs><style>.cls-1{fill:#fff806;}</style></defs><g id="Capa_2" data-name="Capa 2"><g id="Capa_2-2" data-name="Capa 2"><path d="M261.5,25.28a4,4,0,0,0,4,0A3.7,3.7,0,0,0,267,23.8a4,4,0,0,0,0-4,3.66,3.66,0,0,0-1.49-1.48,4,4,0,0,0-3.93,0A3.66,3.66,0,0,0,260,19.82a4,4,0,0,0,0,4A3.64,3.64,0,0,0,261.5,25.28Zm-.9-5.13a3,3,0,0,1,1.25-1.23,3.35,3.35,0,0,1,1.63-.44,3.39,3.39,0,0,1,1.64.44,3,3,0,0,1,1.25,1.23,3.45,3.45,0,0,1,.44,1.67,3.29,3.29,0,0,1-.44,1.65,3.12,3.12,0,0,1-1.23,1.24,3.33,3.33,0,0,1-3.31,0,3.21,3.21,0,0,1-1.24-1.24,3.4,3.4,0,0,1-.44-1.65A3.35,3.35,0,0,1,260.6,20.15Z"/><path d="M262.43,22.2h.4a.89.89,0,0,1,.56.15,3.53,3.53,0,0,1,.72,1l.39.68h.84l-.52-.85a4.84,4.84,0,0,0-.64-.85,1.24,1.24,0,0,0-.36-.23,1.25,1.25,0,0,0,.89-.39,1.12,1.12,0,0,0-.4-1.86,3.66,3.66,0,0,0-1.1-.12h-1.48V24h.7Zm0-1.89h.79a2.51,2.51,0,0,1,.69.07.61.61,0,0,1,.29.23.51.51,0,0,1,.11.34.58.58,0,0,1-.22.48,1.36,1.36,0,0,1-.82.18h-.84Z"/><polygon points="141 42.69 121.58 42.69 121.58 40.37 140.24 40.37 140.24 31.65 121.58 31.65 121.58 29.29 141 29.29 141 18.29 107.72 18.29 107.72 53.69 141 53.69 141 42.69"/><path d="M158.09,49.85H171.7l1.14,3.84h14.28l-12.55-35.4H155.19l-12.56,35.4h14.28Zm5.65-18.62h2.32l2.57,8.47h-7.46Z"/><polygon points="208.87 53.69 221.43 18.29 207.14 18.29 199.9 40.71 198.51 40.71 191.22 18.29 176.93 18.29 189.49 53.69 208.87 53.69"/><path d="M111,56,98.41,91.44H79L71.67,70.72A37.32,37.32,0,0,1,67,79.11,8.09,8.09,0,0,1,71,86.18C71.12,91,66.68,96,58.86,99.8a51.9,51.9,0,0,1-10.66,3.83l-.57-2.38a49.43,49.43,0,0,0,10.12-3.69C64.57,94.2,68.59,90,68.52,86.23a5.61,5.61,0,0,0-3.14-5.12A31.6,31.6,0,0,1,48.45,91.84a1.25,1.25,0,0,1-.54-2.44C54,88.06,59.77,84.21,64.25,78.54a33.85,33.85,0,0,0,6.08-11.61c1.07-3.81,1.17-7.4.1-10.13l-.16-.39L72.81,56h7.94L88,78.46h1.39L96.68,56Z"/><path d="M105.36,18.29V53.68H91.5V41.8H80.33V53.68H71.58a10.59,10.59,0,0,1,1.18,2.21l0,.15-2.54.37c-.06-.12-.13-.24-.19-.37a7.44,7.44,0,0,0-1.85-2.36,7.65,7.65,0,0,0-1.76-1.09A10,10,0,0,0,64,51.85l-3.63-.58c-16.53-2.56-19.88-2.42-20-2.42a1.42,1.42,0,0,1-.29,0S35,48,32.54,50.36c-1.17,1.16-1.56,3-1.16,5.48.87,5.28,5.27,8.27,8.82,9.85a33.91,33.91,0,0,0,9.6,2.53,42.87,42.87,0,0,0,8.62.16,1.25,1.25,0,1,1,.2,2.49,45.56,45.56,0,0,1-8.73-.13c-1.08.58-3.22,2.07-3.11,3.65a1.25,1.25,0,0,1-1.15,1.34h-.09a1.25,1.25,0,0,1-1.25-1.16,5.5,5.5,0,0,1,2.08-4.37,35.76,35.76,0,0,1-4.77-1.28,6.39,6.39,0,0,1-.46,4c-1.1,2.18-3.37,3-5,3.39a5.56,5.56,0,0,1-1.41.18,8.72,8.72,0,0,1-5.17-2c-1.83,2.81-3.85,4.22-6,4.22a5.17,5.17,0,0,1-1.23-.15c-3.55-.84-6.64-5.42-8.88-10.81A51.5,51.5,0,0,1,9.62,52.05c-.3-6.95,1.77-9.8,4-10.9-.37-1.4-.66-2.77-.94-4.1-1-4.85-1.74-7.62-4.51-8-1.27-.21-2.51.47-3.51,1.88-2.83,4-4.56,16.41,6.91,37.18,0,0,0,.06,0,.09a1.13,1.13,0,0,1,.08.24,1.85,1.85,0,0,1,0,.23,1.79,1.79,0,0,1,0,.23,1.83,1.83,0,0,1-.06.25s0,.06,0,.09c-1.06,2.28-.75,5.82.8,9.26,2.51,5.53,7.71,9.8,14.27,11.71a25.55,25.55,0,0,0,2.85.68h0a37.26,37.26,0,0,0,10.16.38,1.25,1.25,0,1,1,.22,2.49c-1.38.12-2.73.19-4.06.19A37,37,0,0,1,29,93.3c-.62-.11-1.24-.25-1.85-.4-.63,3.16,0,5.58,2,7.16,3.09,2.47,10.2,3.18,18.44,1.19l.57,2.38a42.73,42.73,0,0,1-9.92,1.28c-4.32,0-8.12-.88-10.65-2.9-1.95-1.56-4-4.53-2.87-9.82A24.33,24.33,0,0,1,10.08,79.48c-1.75-3.87-2.11-7.8-1-10.72C-1.93,48.61-1.33,35,2.57,29.44a6.08,6.08,0,0,1,5.94-2.91c4.6.72,5.55,5.23,6.56,10,.28,1.3.58,2.64.94,4a8.82,8.82,0,0,1,2.92.37c.15-.5.31-1,.49-1.46C20.73,36,22.84,33.86,25.69,33c4.34-1.27,9.27.92,12,2.49C36.43,13.82,41.55,3.29,46.94.69A6.57,6.57,0,0,1,54.57,2c7,6.52,7,30.63,7,42.22,0,1.93,0,3.75,0,4.73l2.73.44a12.52,12.52,0,0,1,2.13.54V18.29H80.33V30.17H91.5V18.29ZM59.07,44.21c0-10.36,0-34.61-6.2-40.39A4.12,4.12,0,0,0,48,2.94c-4.62,2.24-9.4,12.7-7.65,34.85.21,2.7.53,5.58.94,8.58,2,.08,6.78.51,17.78,2.18C59.06,47.55,59.06,46.16,59.07,44.21ZM38.91,71.8c.49-1,.41-2.34-.21-4.06-5.6-2.62-9-6.59-9.79-11.49-.54-3.33.09-5.91,1.88-7.67,2.3-2.27,5.89-2.48,8-2.38-.35-2.64-.63-5.19-.83-7.62-1.6-1-7.18-4.45-11.55-3.16-2.09.62-3.61,2.22-4.63,4.9a17.71,17.71,0,0,0-.75,2.5c-2.27,10,3,23.24,9.08,28.84,1.43,1.29,3.53,2.74,5.44,2.24C36.67,73.61,38.26,73.08,38.91,71.8Zm-16,4.3c1.59.37,3.2-.76,4.8-3.33-6.22-6.28-11.15-19-9.3-29.43a5.59,5.59,0,0,0-3-.21c-3,.74-3.43,5.2-3.27,8.81a48.44,48.44,0,0,0,3.6,14.77C18,72.13,20.57,75.55,22.88,76.1Z"/><path class="cls-1" d="M70.43,56.8c1.07,2.73,1,6.32-.1,10.13a33.85,33.85,0,0,1-6.08,11.61C59.77,84.21,54,88.06,47.91,89.4a1.25,1.25,0,1,0,.54,2.44A31.6,31.6,0,0,0,65.38,81.11a5.61,5.61,0,0,1,3.14,5.12c.07,3.74-4,8-10.77,11.33a49.43,49.43,0,0,1-10.12,3.69c-8.24,2-15.35,1.28-18.44-1.19-2-1.58-2.64-4-2-7.16.61.15,1.23.29,1.85.4a37,37,0,0,0,6.77.6c1.33,0,2.68-.07,4.06-.19a1.25,1.25,0,1,0-.22-2.49,37.26,37.26,0,0,1-10.16-.38h0a25.55,25.55,0,0,1-2.85-.68C20.06,88.25,14.86,84,12.35,78.45c-1.55-3.44-1.86-7-.8-9.26,0,0,0-.06,0-.09a1.83,1.83,0,0,0,.06-.25,1.79,1.79,0,0,0,0-.23,1.85,1.85,0,0,0,0-.23,1.13,1.13,0,0,0-.08-.24s0-.06,0-.09l1.91-.34c2.24,5.39,5.33,10,8.88,10.81a5.17,5.17,0,0,0,1.23.15c2.18,0,4.2-1.41,6-4.22a8.72,8.72,0,0,0,5.17,2,5.56,5.56,0,0,0,1.41-.18c1.62-.41,3.89-1.21,5-3.39a6.39,6.39,0,0,0,.46-4,35.76,35.76,0,0,0,4.77,1.28,5.5,5.5,0,0,0-2.08,4.37,1.25,1.25,0,0,0,1.25,1.16h.09a1.25,1.25,0,0,0,1.15-1.34c-.11-1.58,2-3.07,3.11-3.65a45.56,45.56,0,0,0,8.73.13,1.25,1.25,0,1,0-.2-2.49,42.87,42.87,0,0,1-8.62-.16,33.91,33.91,0,0,1-9.6-2.53c-3.55-1.58-8-4.57-8.82-9.85-.4-2.47,0-4.32,1.16-5.48C35,48,40,48.82,40,48.83a1.42,1.42,0,0,0,.29,0c.14,0,3.49-.14,20,2.42l3.63.58a10,10,0,0,1,2.52.74,7.65,7.65,0,0,1,1.76,1.09A7.44,7.44,0,0,1,70.08,56c.06.13.13.25.19.37Z"/><path class="cls-1" d="M52.87,3.82c6.22,5.78,6.21,30,6.2,40.39,0,1.95,0,3.34,0,4.34-11-1.67-15.83-2.1-17.78-2.18-.41-3-.73-5.88-.94-8.58C38.63,15.64,43.41,5.18,48,2.94A4.12,4.12,0,0,1,52.87,3.82Z"/><path class="cls-1" d="M38.7,67.74c.62,1.72.7,3.09.21,4.06-.65,1.28-2.24,1.81-3.38,2.1-1.91.5-4-1-5.44-2.24C24,66.06,18.74,52.84,21,42.82a17.71,17.71,0,0,1,.75-2.5c1-2.68,2.54-4.28,4.63-4.9,4.37-1.29,10,2.11,11.55,3.16.2,2.43.48,5,.83,7.62-2.09-.1-5.68.11-8,2.38-1.79,1.76-2.42,4.34-1.88,7.67C29.72,61.15,33.1,65.12,38.7,67.74Z"/><path class="cls-1" d="M27.68,72.77c-1.6,2.57-3.21,3.7-4.8,3.33-2.31-.55-4.91-4-7.16-9.39a48.44,48.44,0,0,1-3.6-14.77c-.16-3.61.28-8.07,3.27-8.81a5.59,5.59,0,0,1,3,.21C16.53,53.77,21.46,66.49,27.68,72.77Z"/><path class="cls-1" d="M13.43,67.72l-1.91.34C.05,47.29,1.78,34.92,4.61,30.88c1-1.41,2.24-2.09,3.51-1.88,2.77.43,3.48,3.2,4.51,8,.28,1.33.57,2.7.94,4.1-2.18,1.1-4.25,4-4,10.9A51.5,51.5,0,0,0,13.43,67.72Z"/><polygon points="112.59 91.44 145.87 91.44 145.87 80.44 126.45 80.44 126.45 78.12 145.12 78.12 145.12 69.4 126.45 69.4 126.45 67.04 145.87 67.04 145.87 56.05 112.59 56.05 112.59 91.44"/><path d="M168.53,66.79c2.91,0,4.63,1.56,4.93,2.36h13.73c-1.05-9.94-10.15-14.28-19-14.28-12.77,0-20.69,7.37-20.69,18.87S156,92.62,166.93,92.62c6,0,10.28-2.19,12.81-5.23H180l.21,4h6.91V71.3H167.68v6.32h6.11c-1.22,3.24-5.09,3.07-5.73,3.07a6.54,6.54,0,0,1-6.78-7C161.28,69.36,164.19,66.79,168.53,66.79Z"/><path d="M201.3,56.05,188.74,91.44H203l1.18-3.83h13.61L219,91.44h14.28L220.68,56.05Zm6,21.4L209.85,69h2.32l2.57,8.47Z"/><polygon points="260.58 56.05 260.58 72.06 259.35 72.06 250.72 56.05 234.87 56.05 234.87 91.44 248.36 91.44 248.36 75.43 249.62 75.43 258.6 91.44 274.06 91.44 274.06 56.05 260.58 56.05"/><polygon points="229.84 42.81 229.84 53.69 243.66 53.69 243.66 42.94 258.07 18.29 243.62 18.29 237.25 29.92 236.28 29.92 229.96 18.29 223.75 18.29 220.63 27.1 229.84 42.81"/></g></g></svg>