<svg xmlns="http://www.w3.org/2000/svg" viewBox="0 0 358.2 80.58"><g id="Capa_2" data-name="Capa 2"><g id="Capa_2-2" data-name="Capa 2"><polygon points="19.22 40.2 10.65 40.2 10.65 31.07 0 31.07 0 58.26 10.65 58.26 10.65 49.13 19.22 49.13 19.22 58.26 29.87 58.26 29.87 31.07 19.22 31.07 19.22 40.2"/><polygon points="31.68 58.26 57.25 58.26 57.25 49.81 42.33 49.81 42.33 48.03 56.66 48.03 56.66 41.33 42.33 41.33 42.33 39.52 57.25 39.52 57.25 31.07 31.68 31.07 31.68 58.26"/><path d="M68.14,31.07,58.5,58.26h11l.9-2.95H80.83l.87,2.95h11L83,31.07Zm4.6,16.44,2-6.5h1.78l2,6.5Z"/><path d="M357.79,31.7a2.78,2.78,0,0,0-1.14-1.14,3.12,3.12,0,0,0-3,0,2.87,2.87,0,0,0-1.15,1.14,3.06,3.06,0,0,0,0,3.06,2.88,2.88,0,0,0,1.13,1.14,3.13,3.13,0,0,0,3.06,0,2.88,2.88,0,0,0,1.13-1.14,3.11,3.11,0,0,0,.4-1.52A3,3,0,0,0,357.79,31.7Zm-.43,2.8a2.35,2.35,0,0,1-.95,1,2.54,2.54,0,0,1-2.54,0,2.29,2.29,0,0,1-.95-1,2.49,2.49,0,0,1-.34-1.26,2.59,2.59,0,0,1,.34-1.29,2.35,2.35,0,0,1,1-.94,2.5,2.5,0,0,1,2.52,0,2.39,2.39,0,0,1,1,.94,2.53,2.53,0,0,1,0,2.55Z"/><path d="M355.68,33.63a1,1,0,0,0-.28-.18,1,1,0,0,0,.68-.3.89.89,0,0,0,.26-.63.79.79,0,0,0-.16-.48.81.81,0,0,0-.41-.32,2.78,2.78,0,0,0-.84-.09h-1.14v3.3h.54v-1.4h.31a.74.74,0,0,1,.43.11,2.65,2.65,0,0,1,.55.77l.3.52h.65l-.41-.65A4,4,0,0,0,355.68,33.63Zm-.71-.56h-.64v-1h.6a2.1,2.1,0,0,1,.54.05.49.49,0,0,1,.22.18.38.38,0,0,1,.08.26.42.42,0,0,1-.17.36A1,1,0,0,1,355,33.07Z"/><polygon points="224.83 58.26 250.4 58.26 250.4 49.81 235.48 49.81 235.48 48.03 249.81 48.03 249.81 41.33 235.48 41.33 235.48 39.52 250.4 39.52 250.4 31.07 224.83 31.07 224.83 58.26"/><path d="M267.8,39.32c2.23,0,3.56,1.2,3.78,1.82h10.55c-.81-7.64-7.8-11-14.59-11-9.81,0-15.89,5.66-15.89,14.49s6.5,14.5,14.92,14.5c4.59,0,7.89-1.68,9.83-4h.2l.16,3.11h5.31V42.79H267.15v4.85h4.69c-.94,2.49-3.91,2.36-4.4,2.36a5,5,0,0,1-5.21-5.34C262.23,41.3,264.46,39.32,267.8,39.32Z"/><path d="M293,31.07l-9.65,27.19h11l.91-2.95h10.45l.88,2.95h11l-9.65-27.19Zm4.59,16.44,2-6.5h1.78l2,6.5Z"/><polygon points="338.49 43.37 337.55 43.37 330.92 31.07 318.75 31.07 318.75 58.26 329.11 58.26 329.11 45.96 330.08 45.96 336.97 58.26 348.85 58.26 348.85 31.07 338.49 31.07 338.49 43.37"/><path d="M207.05,48.29H206l-5.6-17.22h-11l2.52,7.11a10.34,10.34,0,0,0-1.16-.25l-2.1-.33c0-.76,0-2.16,0-3.64,0-8.9,0-27.42-5.37-32.43a5.06,5.06,0,0,0-5.87-1c-4.13,2-8.07,10.09-7.08,26.74-2.12-1.2-5.9-2.88-9.24-1.9a7.46,7.46,0,0,0-4.81,4.91c-.14.37-.27.75-.38,1.13a6.82,6.82,0,0,0-2.24-.28c-.28-1-.51-2.07-.72-3.07-.77-3.67-1.5-7.13-5-7.68a4.68,4.68,0,0,0-4.57,2.24c-1.24,1.77-2,4.62-2,8.45h-5.3L131.17,40h-.74l-4.86-8.93H108.05l-5.57,17.22h-1.07l-5.6-17.22h-11l9.65,27.19h14.88l7.92-22.32,8.19,14v8.35h10.61V50l6.48-11.07a62.49,62.49,0,0,0,5.74,13.89c-.84,2.23-.56,5.26.78,8.23a18.72,18.72,0,0,0,11.28,9.76c-.86,4.07.7,6.34,2.2,7.54,1.94,1.56,4.87,2.23,8.19,2.23a38,38,0,0,0,15.8-3.92c6-3,9.41-6.78,9.34-10.47a6.19,6.19,0,0,0-3.13-5.42A27.93,27.93,0,0,0,197,52.56l2,5.7h14.89l9.64-27.19h-11Zm-28.81-46a3.18,3.18,0,0,1,3.72.68c4.78,4.44,4.77,23.07,4.76,31,0,1.5,0,2.56,0,3.34-8.45-1.29-12.16-1.62-13.65-1.69-.32-2.29-.57-4.5-.73-6.59C171,12,174.69,4,178.24,2.26ZM157.49,32.89a13.32,13.32,0,0,1,.57-1.91,5.61,5.61,0,0,1,3.56-3.77c3.35-1,7.65,1.62,8.87,2.43.15,1.86.37,3.82.64,5.85-1.61-.08-4.37.09-6.13,1.82-1.37,1.36-1.86,3.34-1.44,5.89.62,3.77,3.22,6.82,7.51,8.83a4,4,0,0,1,.16,3.12,3.85,3.85,0,0,1-2.59,1.62c-1.47.37-3.08-.73-4.17-1.73C159.77,50.74,155.74,40.59,157.49,32.89Zm-4.32.24a4.3,4.3,0,0,1,2.3.16c-1.42,8,2.37,17.78,7.14,22.61-1.23,2-2.47,2.84-3.69,2.55-1.76-.42-3.77-3-5.49-7.21a36.79,36.79,0,0,1-2.76-11.35C150.54,37.12,150.87,33.69,153.17,33.13Zm37.53,27.2a22.57,22.57,0,0,1-12.55,8.33,1,1,0,0,0,.2,1.9l.21,0a24.26,24.26,0,0,0,13-8.24A4.32,4.32,0,0,1,194,66.23c.06,2.87-3,6.13-8.27,8.71-9.31,4.58-18.63,4.56-21.94,1.91-1.51-1.21-2-3.06-1.54-5.5.47.12.94.23,1.42.32a29,29,0,0,0,5.2.45c1,0,2.06-.05,3.12-.14a1,1,0,1,0-.18-1.91,29.39,29.39,0,0,1-7.8-.29,19.36,19.36,0,0,1-2.19-.53,16.94,16.94,0,0,1-11-9c-1.2-2.63-1.43-5.36-.61-7.1a.19.19,0,0,0,0-.08.61.61,0,0,0,0-.18,1.1,1.1,0,0,0,0-.18.65.65,0,0,0,0-.18,1.21,1.21,0,0,0-.05-.18s0-.05,0-.07A57.84,57.84,0,0,1,144,36.53a29.31,29.31,0,0,1-.67-5.46c-.08-3.59.68-6,1.6-7.34a2.8,2.8,0,0,1,2.69-1.46c2.12.33,2.68,2.46,3.46,6.19.22,1,.44,2.07.73,3.15-1.68.85-3.27,3-3,8.37a39.14,39.14,0,0,0,2.92,12c1.72,4.15,4.09,7.67,6.81,8.31a4,4,0,0,0,1,.12c1.67,0,3.23-1.09,4.64-3.24a6.68,6.68,0,0,0,4,1.56,3.93,3.93,0,0,0,1.09-.14A5.49,5.49,0,0,0,173,56a4.91,4.91,0,0,0,.35-3.07,28.09,28.09,0,0,0,3.67,1,4.25,4.25,0,0,0-1.6,3.36,1,1,0,0,0,1,.89h.07a1,1,0,0,0,.89-1c-.1-1.21,1.56-2.36,2.39-2.8a35.75,35.75,0,0,0,6.7.1,1,1,0,0,0,.88-1,.94.94,0,0,0-1-.87,34.12,34.12,0,0,1-6.62-.13,25.83,25.83,0,0,1-7.37-1.95c-2.72-1.21-6.11-3.51-6.78-7.55-.31-1.91,0-3.32.9-4.21,1.84-1.83,5.69-1.19,5.73-1.18l.23,0c.1,0,2.68-.12,15.38,1.86l2.78.43a7.3,7.3,0,0,1,2.31.76,5.6,5.6,0,0,1,2.66,3.05,11,11,0,0,1,.4,5.58A24.65,24.65,0,0,1,190.7,60.33Z"/></g></g></svg>