<svg xmlns="http://www.w3.org/2000/svg" viewBox="0 0 358.22 80.58"><defs><style>.cls-1{fill:#fff;}</style></defs><g id="Capa_2" data-name="Capa 2"><g id="Capa_1-2" data-name="Capa 1"><g id="Capa_2-2" data-name="Capa 2"><g id="Capa_2-2-2" data-name="Capa 2-2"><polygon class="cls-1" points="19.22 40.2 10.65 40.2 10.65 31.07 0 31.07 0 58.26 10.65 58.26 10.65 49.13 19.22 49.13 19.22 58.26 29.87 58.26 29.87 31.07 19.22 31.07 19.22 40.2"/><polygon class="cls-1" points="31.68 58.26 57.25 58.26 57.25 49.81 42.33 49.81 42.33 48.03 56.66 48.03 56.66 41.33 42.33 41.33 42.33 39.52 57.25 39.52 57.25 31.07 31.68 31.07 31.68 58.26"/><path class="cls-1" d="M68.14,31.07,58.5,58.26h11l.9-2.95H80.83l.87,2.95h11L83,31.07Zm4.6,16.44,2-6.5h1.78l2,6.5Z"/><path class="cls-1" d="M357.79,31.7a2.78,2.78,0,0,0-1.14-1.14,3.08,3.08,0,0,0-3,0,2.87,2.87,0,0,0-1.15,1.14,3,3,0,0,0,0,3.06,2.88,2.88,0,0,0,1.13,1.14,3.14,3.14,0,0,0,3.06,0,2.88,2.88,0,0,0,1.13-1.14,3.14,3.14,0,0,0,.4-1.52A3,3,0,0,0,357.79,31.7Zm-.43,2.8a2.35,2.35,0,0,1-.95,1,2.56,2.56,0,0,1-2.54,0,2.35,2.35,0,0,1-.95-1,2.56,2.56,0,0,1-.34-1.26,2.62,2.62,0,0,1,.34-1.29,2.27,2.27,0,0,1,1-.94,2.47,2.47,0,0,1,2.52,0,2.33,2.33,0,0,1,1,.94,2.53,2.53,0,0,1,0,2.55Z"/><path class="cls-1" d="M355.68,33.63a.84.84,0,0,0-.28-.18,1,1,0,0,0,.68-.3.89.89,0,0,0,.26-.63.89.89,0,0,0-.57-.8,2.39,2.39,0,0,0-.84-.09h-1.14v3.3h.54v-1.4h.31a.73.73,0,0,1,.43.11,2.64,2.64,0,0,1,.55.77l.3.52h.65l-.41-.65A3.9,3.9,0,0,0,355.68,33.63Zm-.71-.56h-.64v-1h.6a2,2,0,0,1,.54,0,.43.43,0,0,1,.22.18.34.34,0,0,1,.08.26.43.43,0,0,1-.17.36,1.05,1.05,0,0,1-.6.15Z"/><polygon class="cls-1" points="224.83 58.26 250.4 58.26 250.4 49.81 235.48 49.81 235.48 48.03 249.81 48.03 249.81 41.33 235.48 41.33 235.48 39.52 250.4 39.52 250.4 31.07 224.83 31.07 224.83 58.26"/><path class="cls-1" d="M267.8,39.32c2.23,0,3.56,1.2,3.78,1.82h10.55c-.81-7.64-7.8-11-14.59-11-9.81,0-15.89,5.66-15.89,14.49s6.5,14.5,14.92,14.5c4.59,0,7.89-1.68,9.83-4h.2l.16,3.11h5.31V42.79H267.15v4.85h4.69c-.94,2.49-3.91,2.36-4.4,2.36a5,5,0,0,1-5.22-4.78,5.23,5.23,0,0,1,0-.56C262.23,41.3,264.46,39.32,267.8,39.32Z"/><path class="cls-1" d="M293,31.07l-9.65,27.19h11l.91-2.95h10.45l.88,2.95h11l-9.65-27.19Zm4.59,16.44,2-6.5h1.78l2,6.5Z"/><polygon class="cls-1" points="338.49 43.37 337.55 43.37 330.92 31.07 318.75 31.07 318.75 58.26 329.11 58.26 329.11 45.96 330.08 45.96 336.97 58.26 348.85 58.26 348.85 31.07 338.49 31.07 338.49 43.37"/><path class="cls-1" d="M207.05,48.29H206l-5.6-17.22h-11l2.52,7.11a9.22,9.22,0,0,0-1.16-.25l-2.1-.33V34c0-8.9,0-27.42-5.37-32.43a5.05,5.05,0,0,0-5.87-1c-4.13,2-8.07,10.09-7.08,26.74-2.12-1.2-5.9-2.88-9.24-1.9a7.45,7.45,0,0,0-4.81,4.91c-.14.37-.27.75-.38,1.13a6.79,6.79,0,0,0-2.24-.28c-.28-1-.51-2.07-.72-3.07-.77-3.67-1.5-7.13-5-7.68a4.67,4.67,0,0,0-4.57,2.24c-1.24,1.77-2,4.62-2,8.45h-5.3L131.17,40h-.74l-4.86-8.93H108.05l-5.57,17.22h-1.07l-5.6-17.22h-11l9.65,27.19h14.88l7.92-22.32,8.19,14v8.35h10.61V50l6.48-11.07a62.61,62.61,0,0,0,5.74,13.89c-.84,2.23-.56,5.26.78,8.23a18.75,18.75,0,0,0,11.28,9.76c-.86,4.07.7,6.34,2.2,7.54,1.94,1.56,4.87,2.23,8.19,2.23a38,38,0,0,0,15.8-3.92c6-3,9.41-6.78,9.34-10.47a6.18,6.18,0,0,0-3.13-5.42A27.8,27.8,0,0,0,197,52.56l2,5.7h14.89l9.64-27.19h-11Zm-28.81-46A3.17,3.17,0,0,1,182,3c4.78,4.44,4.77,23.07,4.76,31v3.34c-8.45-1.29-12.16-1.62-13.65-1.69-.32-2.29-.57-4.5-.73-6.59-1.34-17,2.35-25,5.9-26.77Zm-20.75,30.6a12.7,12.7,0,0,1,.57-1.91,5.6,5.6,0,0,1,3.56-3.77c3.35-1,7.65,1.62,8.87,2.43.15,1.86.37,3.82.64,5.85-1.61-.08-4.37.09-6.13,1.82-1.37,1.36-1.86,3.34-1.44,5.89.62,3.77,3.22,6.82,7.51,8.83a4,4,0,0,1,.16,3.12,3.86,3.86,0,0,1-2.59,1.62c-1.47.37-3.08-.73-4.17-1.73C159.77,50.74,155.74,40.59,157.49,32.89Zm-4.32.24a4.29,4.29,0,0,1,2.3.16c-1.42,8,2.37,17.78,7.14,22.61-1.23,2-2.47,2.84-3.69,2.55-1.76-.42-3.77-3-5.49-7.21a36.85,36.85,0,0,1-2.76-11.35C150.54,37.12,150.87,33.69,153.17,33.13Zm37.53,27.2a22.62,22.62,0,0,1-12.55,8.33,1,1,0,0,0-.52,1.31,1,1,0,0,0,.72.59h.21a24.33,24.33,0,0,0,13-8.24A4.3,4.3,0,0,1,194,66.23c.06,2.87-3,6.13-8.27,8.71-9.31,4.58-18.63,4.56-21.94,1.91-1.51-1.21-2-3.06-1.54-5.5.47.12.94.23,1.42.32a30.26,30.26,0,0,0,5.2.45c1,0,2.06-.05,3.12-.14a1,1,0,0,0,.38-2,1.07,1.07,0,0,0-.56.06,29.55,29.55,0,0,1-7.8-.29,20.54,20.54,0,0,1-2.19-.53,17,17,0,0,1-11-9c-1.2-2.63-1.43-5.36-.61-7.1a.11.11,0,0,0,0-.08.54.54,0,0,0,0-.18v-.18a.54.54,0,0,0,0-.18,1.21,1.21,0,0,0-.05-.18v-.07A58,58,0,0,1,144,36.53a29.63,29.63,0,0,1-.67-5.46c-.08-3.59.68-6,1.6-7.34a2.79,2.79,0,0,1,2.69-1.46c2.12.33,2.68,2.46,3.46,6.19.22,1,.44,2.07.73,3.15-1.68.85-3.27,3-3,8.37a39.14,39.14,0,0,0,2.92,12c1.72,4.15,4.09,7.67,6.81,8.31a4.21,4.21,0,0,0,1,.12c1.67,0,3.23-1.09,4.64-3.24a6.75,6.75,0,0,0,4,1.56,4.4,4.4,0,0,0,1.09-.14A5.51,5.51,0,0,0,173,56a4.92,4.92,0,0,0,.35-3.07,29.28,29.28,0,0,0,3.67,1,4.25,4.25,0,0,0-1.6,3.36,1,1,0,0,0,1,.89h.07a1,1,0,0,0,.89-1c-.1-1.21,1.56-2.36,2.39-2.8a36.58,36.58,0,0,0,6.7.1,1,1,0,0,0,.88-1,.93.93,0,0,0-1-.87,34.86,34.86,0,0,1-6.62-.13,26.16,26.16,0,0,1-7.37-1.95c-2.72-1.21-6.11-3.51-6.78-7.55-.31-1.91,0-3.32.9-4.21,1.84-1.83,5.69-1.19,5.73-1.18h.23c.1,0,2.68-.12,15.38,1.86l2.78.43a7.22,7.22,0,0,1,2.31.76,5.58,5.58,0,0,1,2.66,3,11,11,0,0,1,.4,5.58A24.7,24.7,0,0,1,190.7,60.33Z"/></g></g></g></g></svg>