<svg xmlns="http://www.w3.org/2000/svg" viewBox="0 0 311.35 29"><g id="Capa_2" data-name="Capa 2"><g id="Capa_2-2" data-name="Capa 2"><polygon points="19.22 10.03 10.65 10.03 10.65 0.91 0 0.91 0 28.09 10.65 28.09 10.65 18.96 19.22 18.96 19.22 28.09 29.87 28.09 29.87 0.91 19.22 0.91 19.22 10.03"/><polygon points="31.68 28.09 57.25 28.09 57.25 19.64 42.33 19.64 42.33 17.86 56.66 17.86 56.66 11.16 42.33 11.16 42.33 9.35 57.25 9.35 57.25 0.91 31.68 0.91 31.68 28.09"/><path d="M68.14.91,58.5,28.09h11l.9-2.94H80.83l.87,2.94h11L83,.91Zm4.6,16.44,2-6.51h1.78l2,6.51Z"/><path d="M310.94,1.53A2.78,2.78,0,0,0,309.79.4a3,3,0,0,0-3,0,2.84,2.84,0,0,0-1.15,1.13,3.14,3.14,0,0,0-.41,1.54,3.09,3.09,0,0,0,.4,1.52,2.91,2.91,0,0,0,1.14,1.14,3.12,3.12,0,0,0,1.53.4,3.06,3.06,0,0,0,1.52-.4A2.84,2.84,0,0,0,311,4.59a3.09,3.09,0,0,0,.4-1.52A3.14,3.14,0,0,0,310.94,1.53Zm-.43,2.81a2.55,2.55,0,0,1-.95,1,2.63,2.63,0,0,1-2.55,0,2.45,2.45,0,0,1-.94-1,2.56,2.56,0,0,1,0-2.55,2.37,2.37,0,0,1,1-.95,2.55,2.55,0,0,1,2.51,0,2.37,2.37,0,0,1,1,1,2.56,2.56,0,0,1,.34,1.28A2.64,2.64,0,0,1,310.51,4.34Z"/><path d="M308.82,3.46a.83.83,0,0,0-.28-.17,1,1,0,0,0,.69-.3.89.89,0,0,0,.26-.63.92.92,0,0,0-.16-.49.87.87,0,0,0-.41-.32,2.87,2.87,0,0,0-.84-.09h-1.14v3.3h.53V3.36h.32a.7.7,0,0,1,.42.11,2.78,2.78,0,0,1,.56.77l.29.52h.65l-.4-.64A3.28,3.28,0,0,0,308.82,3.46Zm-.7-.55h-.65v-1h.61a1.54,1.54,0,0,1,.53.06.44.44,0,0,1,.23.17.48.48,0,0,1-.09.63A1,1,0,0,1,308.12,2.91Z"/><polygon points="160.19 18.12 159.13 18.12 153.53 0.91 136.06 0.91 131.17 9.84 130.43 9.84 125.57 0.91 108.05 0.91 102.48 18.12 101.41 18.12 95.81 0.91 84.84 0.91 94.49 28.09 109.37 28.09 117.29 5.77 125.48 19.74 125.48 28.09 136.09 28.09 136.09 19.84 144.29 5.8 152.2 28.09 167.09 28.09 176.73 0.91 165.76 0.91 160.19 18.12"/><polygon points="177.98 28.09 203.54 28.09 203.54 19.64 188.63 19.64 188.63 17.86 202.96 17.86 202.96 11.16 188.63 11.16 188.63 9.35 203.54 9.35 203.54 0.91 177.98 0.91 177.98 28.09"/><path d="M220.94,9.16c2.24,0,3.56,1.2,3.79,1.81h10.55c-.81-7.64-7.8-11-14.6-11-9.8,0-15.89,5.66-15.89,14.5S211.3,29,219.71,29c4.6,0,7.9-1.69,9.84-4h.2l.16,3.11h5.3V12.62H220.3v4.86H225c-.94,2.49-3.92,2.36-4.4,2.36a5,5,0,0,1-5.21-5.34C215.38,11.13,217.61,9.16,220.94,9.16Z"/><path d="M246.11.91l-9.64,27.18h11l.91-2.94H258.8l.87,2.94h11L261,.91Zm4.6,16.44,2-6.51h1.78l2,6.51Z"/><polygon points="291.64 13.2 290.7 13.2 284.07 0.91 271.9 0.91 271.9 28.09 282.25 28.09 282.25 15.79 283.23 15.79 290.12 28.09 302 28.09 302 0.91 291.64 0.91 291.64 13.2"/></g></g></svg>