<svg xmlns="http://www.w3.org/2000/svg" viewBox="0 0 119.77 170.54"><g id="Capa_2" data-name="Capa 2"><g id="Capa_2-2" data-name="Capa 2"><path d="M108.84,128.61c9.51-12.81,13.31-27.78,9.43-37.75-2.28-5.86-7-9.52-13.68-10.58l-4.44-.71c-.07-1.6-.07-4.58-.07-7.69,0-18.84,0-58-11.36-68.64C85.06-.15,80.54-.92,76.3,1.13c-8.75,4.23-17.08,21.34-15,56.6-4.48-2.55-12.49-6.12-19.55-4-4.64,1.37-8.06,4.87-10.18,10.41-.3.77-.57,1.57-.81,2.38a14.53,14.53,0,0,0-4.77-.6c-.59-2.19-1.05-4.37-1.5-6.48-1.64-7.77-3.18-15.1-10.66-16.28-3.63-.57-7.16,1.16-9.67,4.76-6.33,9-7.31,31.15,10.52,63.86-1.76,4.75-1.16,11.18,1.69,17.48,4.32,9.53,13,17,23.87,20.66-1.81,8.59,1.49,13.41,4.66,16,4.11,3.29,10.3,4.71,17.33,4.71,10.68,0,23.3-3.29,33.44-8.29,12.72-6.27,19.93-14.34,19.77-22.15A13.12,13.12,0,0,0,108.84,128.61ZM78.07,4.79c3.45-1.67,6.19-.14,7.88,1.43C96.07,15.62,96,55,96,71.87c0,3.17,0,5.43,0,7.07-17.86-2.72-25.73-3.39-28.9-3.54-.67-4.87-1.19-9.57-1.53-14C62.8,25.44,70.56,8.42,78.07,4.79ZM42.9,57.59C50,55.5,59.06,61,61.67,62.73c.33,3.93.78,8.09,1.36,12.39-3.41-.17-9.24.18-13,3.86C47.15,81.84,46.12,86,47,91.44c1.3,8,6.8,14.41,15.9,18.69,1,2.79,1.13,5,.33,6.59-1,2-3.47,2.9-5.48,3.43-2.43.63-5.56-.67-8.83-3.67-10-9.09-18.48-30.57-14.77-46.87a27.68,27.68,0,0,1,1.21-4C37,61.2,39.5,58.6,42.9,57.59ZM29.84,70.45C26.9,87.19,35.08,108.26,45,118.32c-2.6,4.18-5.22,6-7.8,5.39-8.48-2-16.91-25.9-17.5-39.29-.26-5.86.44-13.1,5.32-14.31A9.23,9.23,0,0,1,29.84,70.45Zm64.05,88.16c-19.7,9.7-39.44,9.65-46.44,4-3.2-2.56-4.28-6.48-3.27-11.63,1,.25,2,.48,3,.66h0a61,61,0,0,0,11,1c2.15,0,4.36-.1,6.6-.31a2,2,0,0,0-.36-4.05,60.21,60.21,0,0,1-16.52-.61h0a44.91,44.91,0,0,1-4.63-1.1c-10.67-3.1-19.12-10-23.2-19-2.53-5.58-3-11.35-1.3-15.05,0,0,0-.1,0-.14a1.59,1.59,0,0,0,.07-.2,1.77,1.77,0,0,0,0-.2l0-.19a1.48,1.48,0,0,0,0-.21,1.09,1.09,0,0,0,0-.18,1.3,1.3,0,0,0,0-.21c0-.06,0-.12-.05-.18a2,2,0,0,0-.09-.22,1.17,1.17,0,0,0-.05-.11C.08,76.9,2.89,56.78,7.49,50.21c1.62-2.31,3.64-3.41,5.71-3.08,4.5.71,5.66,5.21,7.33,13.1.45,2.17.93,4.39,1.54,6.67-3.57,1.79-6.94,6.42-6.44,17.71.6,13.25,9.1,40.34,20.63,43.06a9.32,9.32,0,0,0,2,.23c3.54,0,6.83-2.29,9.81-6.85,2.88,2.19,5.72,3.32,8.39,3.32a8.92,8.92,0,0,0,2.31-.29c2.62-.68,6.31-2,8.09-5.53a10.33,10.33,0,0,0,.75-6.5,58.45,58.45,0,0,0,7.75,2.07c-1.9,1.74-3.59,4.14-3.38,7.09a2,2,0,0,0,2,1.89h.15A2,2,0,0,0,76,120.93c-.16-2.25,2.5-4.52,5.06-5.93a72.18,72.18,0,0,0,8.2.47q3,0,6-.25A2,2,0,0,0,97.16,113,2,2,0,0,0,95,111.17a69,69,0,0,1-14-.27h0a55,55,0,0,1-15.59-4.11c-5.76-2.57-12.93-7.43-14.33-16-.66-4,0-7,1.88-8.91C56.81,78,65,79.38,65,79.39h.07a1.08,1.08,0,0,0,.31,0h.1c.23,0,5.66-.23,32.43,3.92l.12,0h0l5.87.93c5.24.84,8.78,3.54,10.53,8,3.49,8.94-.64,23.48-10,35.35-7.28,9.22-16.72,15.49-26.57,17.65a2,2,0,0,0,.44,4,2.28,2.28,0,0,0,.44,0c10.15-2.23,19.85-8.4,27.53-17.45a9.15,9.15,0,0,1,5.09,8.33C111.51,146.26,105,153.14,93.89,158.61Z"/></g></g></svg>